<svg width="45" height="45" viewBox="0 0 45 45" fill="none" xmlns="http://www.w3.org/2000/svg">
<g clip-path="url(#clip0)">
<path d="M44.544 9.73297L27.0181 0.109289C26.7548 -0.0352497 26.4355 -0.0352497 26.1721 0.109289L19.5663 3.7365C19.4269 3.77323 19.2968 3.84327 19.189 3.94386L8.64655 9.73297C8.36536 9.88713 8.19061 10.1824 8.19061 10.5034V22.1427C6.4122 22.6989 4.78245 23.6798 3.42735 25.0352C-0.104755 28.567 -1.00529 33.9537 1.18648 38.4392C1.39934 38.8753 1.92566 39.0562 2.36168 38.843C2.79804 38.6298 2.97863 38.1035 2.76577 37.6674C0.903584 33.8562 1.66885 29.2794 4.67018 26.278C6.54713 24.4011 9.0424 23.3674 11.6966 23.3674C14.3509 23.3674 16.8461 24.4011 18.7231 26.278C20.5997 28.1547 21.6334 30.6499 21.6334 33.3042C21.6334 35.9584 20.5997 38.4537 18.7227 40.3306C15.7214 43.3319 11.1446 44.0972 7.33333 42.235C6.89732 42.0218 6.371 42.2027 6.15814 42.6388C5.94494 43.0751 6.12553 43.6014 6.56189 43.8143C8.19576 44.6129 9.94877 45.0008 11.6891 45.0008C14.7251 45.0005 17.7206 43.8188 19.9659 41.5734C20.9955 40.5438 21.8092 39.3559 22.385 38.0647L26.1721 40.1442C26.304 40.2166 26.4496 40.2527 26.5951 40.2527C26.7407 40.2527 26.8866 40.2166 27.0181 40.1442L44.544 30.5208C44.8252 30.3663 45 30.0711 45 29.7504V23.6424C45 23.1569 44.6065 22.7635 44.1211 22.7635C43.6356 22.7635 43.2422 23.1569 43.2422 23.6424V29.2303L27.4768 37.8872V20.6455L32.6798 17.7884V22.3175C32.6798 22.6285 32.8439 22.9162 33.1114 23.0742C33.2494 23.1555 33.4039 23.1964 33.5587 23.1964C33.7043 23.1964 33.8502 23.1603 33.9824 23.0875L37.738 21.0204C38.0188 20.8659 38.1929 20.571 38.1929 20.2507V14.7609L43.2422 11.9886V23.6211C43.2422 24.1066 43.6356 24.5 44.1211 24.5C44.6065 24.5 45 24.1066 45 23.6211V10.5034C45 10.1827 44.8252 9.88713 44.544 9.73297ZM26.5951 1.88221L42.2949 10.5034L37.3425 13.2229L21.6427 4.60167L26.5951 1.88221ZM26.5951 19.1242L10.8953 10.5034L16.0294 7.68402L31.7295 16.3049L26.5951 19.1242ZM33.5553 15.3024L17.8555 6.68152L19.8166 5.60452L35.5167 14.2254L33.5553 15.3024ZM19.9659 25.0352C17.757 22.8263 14.8202 21.6099 11.6966 21.6099C11.1058 21.6099 10.5221 21.6535 9.94843 21.739V11.9886L25.7193 20.6486V37.8903L22.982 36.3872C23.2515 35.395 23.3909 34.3602 23.3909 33.3042C23.3909 30.1806 22.1745 27.2438 19.9659 25.0352ZM36.4354 19.7312L34.4376 20.8309V16.8233L36.4354 15.7264V19.7312Z" fill="#575757"/>
<path d="M44.1211 19.2429C43.89 19.2429 43.6631 19.337 43.4997 19.5004C43.3363 19.6638 43.2422 19.8904 43.2422 20.1218C43.2422 20.3529 43.3363 20.5794 43.4997 20.7429C43.6631 20.9066 43.89 21.0004 44.1211 21.0004C44.3522 21.0004 44.5791 20.9066 44.7425 20.7429C44.9059 20.5794 45 20.3529 45 20.1218C45 19.8904 44.9059 19.6638 44.7425 19.5004C44.5791 19.337 44.3522 19.2429 44.1211 19.2429Z" fill="#575757"/>
<path d="M8.74193 34.1822C8.96681 34.1822 9.19203 34.0964 9.36335 33.9251C9.70667 33.5818 9.70667 33.0252 9.36335 32.6819L8.75463 32.0729H13.9491C15.2091 32.0729 16.2343 33.098 16.2343 34.358C16.2343 35.618 15.2091 36.6432 13.9491 36.6432H10.8712C10.3858 36.6432 9.99231 37.0366 9.99231 37.5221C9.99231 38.0072 10.3858 38.4007 10.8712 38.4007H13.9491C16.1783 38.4007 17.9921 36.5872 17.9921 34.358C17.9921 32.1288 16.1783 30.3154 13.9491 30.3154H8.75463L9.36335 29.7063C9.70667 29.363 9.70667 28.8065 9.36335 28.4632C9.02037 28.1202 8.46384 28.1202 8.12052 28.4632L6.01114 30.5725C5.66816 30.9159 5.66816 31.4724 6.01114 31.8157L8.12052 33.9248C8.29218 34.0964 8.51705 34.1822 8.74193 34.1822Z" fill="#575757"/>
<path d="M4.04938 41.8315C3.79944 41.8315 3.55121 41.7251 3.37784 41.5187L3.37612 41.5167C3.0637 41.1452 3.11176 40.5911 3.48324 40.2786C3.85471 39.9659 4.40918 40.0139 4.7216 40.3854C5.03368 40.7572 4.98665 41.3124 4.61517 41.6248C4.45003 41.7635 4.24919 41.8315 4.04938 41.8315Z" fill="#575757"/>
</g>
<defs>
<clipPath id="clip0">
<rect width="45" height="45" fill="white"/>
</clipPath>
</defs>
</svg>
