<svg width="47" height="39" viewBox="0 0 47 39" fill="none" xmlns="http://www.w3.org/2000/svg">
<path d="M10.1392 18.72H6.23908C4.51594 18.72 3.11914 20.1168 3.11914 21.8399C3.11914 23.5631 4.51594 24.9599 6.23908 24.9599H10.1392C11.8623 24.9599 13.2591 23.5631 13.2591 21.8399C13.2591 20.1168 11.8623 18.72 10.1392 18.72ZM10.1392 23.3999H6.23908C5.37751 23.3999 4.67911 22.7015 4.67911 21.8399C4.67911 20.9784 5.37751 20.28 6.23908 20.28H10.1392C11.0008 20.28 11.6992 20.9784 11.6992 21.8399C11.6992 22.7015 11.0008 23.3999 10.1392 23.3999Z" fill="#575757"/>
<path d="M21.8392 12.4801H3.8993C3.46834 12.4801 3.11914 12.8293 3.11914 13.2599C3.11914 13.6909 3.46834 14.0401 3.8993 14.0401H21.8392C22.2698 14.0401 22.619 13.6909 22.619 13.2599C22.619 12.8293 22.2698 12.4801 21.8392 12.4801Z" fill="#575757"/>
<path d="M7.01925 17.1601C7.44986 17.1601 7.79906 16.8109 7.79906 16.3799C7.79906 15.9493 7.44986 15.6001 7.01925 15.6001H3.8993C3.46834 15.6001 3.11914 15.9493 3.11914 16.3799C3.11914 16.8109 3.46834 17.1601 3.8993 17.1601H7.01925Z" fill="#575757"/>
<path d="M17.1596 15.6001H10.1395C9.70857 15.6001 9.35938 15.9493 9.35938 16.3799C9.35938 16.8109 9.70857 17.1601 10.1395 17.1601H17.1596C17.5902 17.1601 17.9394 16.8109 17.9394 16.3799C17.9394 15.9493 17.5902 15.6001 17.1596 15.6001Z" fill="#575757"/>
<path d="M43.7806 25.6547C43.4914 25.2209 43.0044 24.9599 42.4827 24.9599H40.56V24.1801C40.56 23.3185 39.8616 22.6198 39 22.6198H38.2198V2.34014C38.2198 1.0476 37.1722 0 35.8801 0H2.34014C1.0476 0 0 1.0476 0 2.34014V25.7401C0 27.0322 1.0476 28.0798 2.34014 28.0798H10.9198V30.42C10.9198 31.7122 11.9678 32.7598 13.2599 32.7598H18.4858L18.2894 32.8908C18.0577 33.0458 17.9259 33.3121 17.9438 33.5903C17.962 33.8684 18.1269 34.1159 18.3769 34.2394C18.6265 34.3626 18.9232 34.3437 19.1553 34.1887L21.495 32.6287C21.4997 32.6287 21.5022 32.6201 21.5068 32.6173C21.5843 32.5634 21.6518 32.4963 21.705 32.4184C21.7189 32.3973 21.7253 32.3738 21.7378 32.352C21.766 32.3059 21.79 32.257 21.8089 32.206C21.8089 32.192 21.8089 32.1788 21.8142 32.1649C21.821 32.1317 21.8253 32.0985 21.8275 32.0649C21.835 32.0057 21.835 31.9457 21.8275 31.8864C21.8235 31.8532 21.8175 31.8203 21.8089 31.7879C21.7914 31.7232 21.765 31.6607 21.7307 31.6033C21.7243 31.584 21.7168 31.5654 21.7082 31.5468C21.7036 31.5401 21.6957 31.5368 21.6911 31.5297C21.6371 31.4519 21.57 31.3847 21.4922 31.3308H21.4875L19.1528 29.7748C18.7943 29.5359 18.3101 29.6327 18.0709 29.9908C17.832 30.3493 17.9288 30.8338 18.2869 31.0727L18.4858 31.1998H13.2599C12.8293 31.1998 12.4801 30.8506 12.4801 30.42V28.0798H24.9599V35.0999C24.9599 35.5305 25.3091 35.8801 25.7401 35.8801H27.3C27.3 37.6028 28.6968 39 30.42 39C32.1431 39 33.5399 37.6028 33.5399 35.8801H36.6599C36.6599 37.6028 38.0567 39 39.7798 39C41.503 39 42.8997 37.6028 42.8997 35.8801H46.0197C46.4507 35.8801 46.7999 35.5305 46.7999 35.0999V30.6539C46.8002 30.3457 46.7092 30.0444 46.5378 29.788L43.7806 25.6547ZM39 29.6398H26.5199V24.1801H39V29.6398ZM26.5199 21.84C26.5199 20.9784 27.2183 20.28 28.0798 20.28C28.6001 20.275 29.0871 20.5342 29.3738 20.968C29.5448 21.2269 29.637 21.5297 29.6398 21.84C29.6348 22.1145 29.5588 22.3834 29.4192 22.6198H26.7352C26.5949 22.3841 26.5202 22.1145 26.5199 21.84ZM33.326 22.6198H31.093C31.1619 22.3655 31.198 22.1035 31.1998 21.84C31.1966 21.4358 31.1148 21.0359 30.9588 20.6627C31.2408 20.4146 31.604 20.2782 31.9799 20.28C32.8415 20.28 33.5399 20.9784 33.5399 21.84C33.5392 22.1142 33.4653 22.3834 33.326 22.6198ZM27.3 9.35983L31.4604 6.23989H33.5399L29.3795 9.35983H27.3ZM22.6198 9.35983L26.7805 6.23989H28.86L24.6993 9.35983H22.6198ZM17.9398 9.35983L22.1006 6.23989H24.1801L20.0193 9.35983H17.9398ZM13.2599 9.35983L17.4203 6.23989H19.4998L15.3394 9.35983H13.2599ZM8.58002 9.35983L12.7404 6.23989H14.8199L10.6595 9.35983H8.58002ZM3.90011 9.35983L8.06051 6.23989H10.14L5.98031 9.35983H3.90011ZM1.55997 6.23989H5.46008L1.55997 9.16488V6.23989ZM36.1396 6.23989H36.6599V9.35983H31.9799L36.1396 6.23989ZM2.34014 1.55997H35.8801C36.3107 1.55997 36.6599 1.90917 36.6599 2.34014V4.67991H1.55997V2.34014C1.55997 1.90917 1.90917 1.55997 2.34014 1.55997ZM2.34014 26.5199C1.90917 26.5199 1.55997 26.1707 1.55997 25.7401V10.9198H36.6599V22.6198H34.9885C35.3309 21.3208 34.8 19.9486 33.672 19.2188C32.5441 18.4886 31.0748 18.5665 30.0301 19.4109C28.8936 18.4808 27.2611 18.4744 26.1171 19.3952C24.9735 20.3164 24.6318 21.9128 25.2984 23.2214C25.0809 23.4935 24.9617 23.8313 24.9599 24.1801V26.5199H2.34014ZM30.42 37.44C29.5584 37.44 28.86 36.7416 28.86 35.8801C28.86 35.0185 29.5584 34.3197 30.42 34.3197C31.2816 34.3197 31.9799 35.0185 31.9799 35.8801C31.9799 36.7416 31.2816 37.44 30.42 37.44ZM33.1061 34.3197C32.5559 33.3553 31.5304 32.7598 30.42 32.7598C29.3092 32.7598 28.2841 33.3553 27.7335 34.3197H26.5199V31.1998H39V32.8708C38.197 33.0811 37.5111 33.6024 37.0937 34.3197H33.1061ZM39.7798 37.44C38.9182 37.44 38.2198 36.7416 38.2198 35.8801C38.2198 35.0185 38.9182 34.3197 39.7798 34.3197C40.6414 34.3197 41.3398 35.0185 41.3398 35.8801C41.3398 36.7416 40.6414 37.44 39.7798 37.44ZM45.2399 34.3197H42.4663C42.0489 33.6024 41.3626 33.0811 40.56 32.8708V26.5199H42.4827L45.2399 30.6539V34.3197Z" fill="#575757"/>
<path d="M41.3398 30.42C41.3398 30.8506 41.689 31.1998 42.12 31.1998H42.8998C43.3308 31.1998 43.68 30.8506 43.68 30.42C43.68 29.989 43.3308 29.6398 42.8998 29.6398H42.12C41.689 29.6398 41.3398 29.989 41.3398 30.42Z" fill="#575757"/>
</svg>
