<svg width="31" height="35" viewBox="0 0 31 35" fill="none" xmlns="http://www.w3.org/2000/svg">
<mask id="path-1-inside-1" fill="white">
<path d="M21.325 2.54193C24.7142 5.93111 24.7142 11.4261 21.325 14.8153C17.9358 18.2044 12.4408 18.2044 9.05165 14.8153C5.66247 11.4261 5.66247 5.93111 9.05165 2.54193C12.4408 -0.847311 17.9358 -0.847311 21.325 2.54193Z"/>
</mask>
<path d="M9.05165 2.54193L10.4659 3.95615L10.4659 3.95613L9.05165 2.54193ZM19.9108 3.95615C22.5189 6.56428 22.5189 10.7929 19.9108 13.401L22.7392 16.2295C26.9094 12.0592 26.9094 5.29795 22.7392 1.12772L19.9108 3.95615ZM19.9108 13.401C17.3026 16.0092 13.074 16.0092 10.4659 13.401L7.63744 16.2295C11.8077 20.3997 18.569 20.3997 22.7392 16.2295L19.9108 13.401ZM10.4659 13.401C7.85773 10.7929 7.85773 6.56428 10.4659 3.95615L7.63744 1.12772C3.46721 5.29795 3.46721 12.0592 7.63744 16.2295L10.4659 13.401ZM10.4659 3.95613C13.074 1.34796 17.3026 1.34796 19.9108 3.95613L22.7392 1.12773C18.569 -3.04258 11.8077 -3.04258 7.63742 1.12773L10.4659 3.95613Z" fill="#575757" mask="url(#path-1-inside-1)"/>
<path d="M27.94 24.4404L27.9403 24.4406C28.8309 25.0419 29.375 26.0662 29.375 27.1947V33.7143H1V27.1947C1 26.0661 1.54401 25.0419 2.43464 24.4407L2.43497 24.4404C10.0083 19.3233 20.3667 19.3233 27.94 24.4404Z" stroke="#575757" stroke-width="2"/>
</svg>
