<svg width="38" height="38" viewBox="0 0 38 38" fill="none" xmlns="http://www.w3.org/2000/svg">
<path d="M35.6247 0H2.37498C1.06332 0 0 1.06332 0 2.37498V29.2915C0 30.6031 1.06332 31.6664 2.37498 31.6664H21.3748V30.0831H2.37498C1.93776 30.0831 1.5833 29.7287 1.5833 29.2915V2.37498C1.5833 1.93776 1.93776 1.5833 2.37498 1.5833H35.6247C36.0619 1.5833 36.4164 1.93776 36.4164 2.37498V29.2915C36.4164 29.7287 36.0619 30.0831 35.6247 30.0831H34.0414V31.6664H35.6247C36.9364 31.6664 37.9997 30.6031 37.9997 29.2915V2.37498C37.9997 1.06332 36.9364 0 35.6247 0Z" fill="#575757"/>
<path d="M33.2485 7.91664C31.4996 7.91664 30.0818 6.49885 30.0818 4.74997C30.0818 4.31275 29.7274 3.95828 29.2901 3.95828H8.70707C8.26985 3.95828 7.91538 4.31275 7.91538 4.74997C7.91538 6.49885 6.49759 7.91664 4.74872 7.91664C4.3115 7.91664 3.95703 8.2711 3.95703 8.70832V22.9582C3.95703 23.3954 4.3115 23.7499 4.74872 23.7499C6.49759 23.7499 7.91538 25.1677 7.91538 26.9166C7.91538 27.3538 8.26985 27.7082 8.70707 27.7082H18.9987V26.1248H9.433C9.09248 24.1329 7.53227 22.5727 5.5404 22.2322V9.43425C7.53227 9.09374 9.09248 7.53352 9.433 5.54165H28.5643C28.9048 7.53352 30.465 9.09374 32.4569 9.43425V15.8333H34.0402V8.70832C34.0402 8.27103 33.6857 7.91664 33.2485 7.91664Z" fill="#575757"/>
<path d="M27.707 16.6248C23.772 16.6248 20.582 19.8148 20.582 23.7498C20.582 27.6848 23.772 30.8747 27.707 30.8747C31.64 30.8699 34.8271 27.6828 34.8319 23.7498C34.8319 19.8148 31.6419 16.6248 27.707 16.6248ZM27.707 29.2914C24.6464 29.2914 22.1653 26.8104 22.1653 23.7498C22.1653 20.6893 24.6464 18.2081 27.707 18.2081C30.7661 18.2116 33.2451 20.6907 33.2486 23.7498C33.2485 26.8103 30.7675 29.2914 27.707 29.2914Z" fill="#575757"/>
<path d="M30.8736 28.4998V35.5606L28.2017 33.4231C27.9125 33.1916 27.5014 33.1916 27.2122 33.4231L24.5403 35.5606V28.4998H22.957V37.208C22.957 37.388 23.0182 37.5626 23.1307 37.7031C23.404 38.0445 23.9022 38.0996 24.2435 37.8263L27.707 35.0555L31.1705 37.8263C31.311 37.9386 31.4855 37.9998 31.6653 37.9997C32.1026 37.9997 32.457 37.6452 32.457 37.208V28.4998H30.8736Z" fill="#575757"/>
<path d="M26.9159 7.91663H11.0827C10.6455 7.91663 10.291 8.27109 10.291 8.70831V11.8749C10.291 12.3121 10.6455 12.6666 11.0827 12.6666H26.9159C27.3531 12.6666 27.7076 12.3121 27.7076 11.8749V8.70824C27.7076 8.27102 27.3531 7.91663 26.9159 7.91663ZM26.1242 11.0832H11.8743V9.49992H26.1242V11.0832Z" fill="#575757"/>
<path d="M11.0833 15.0416H9.5V16.6249H11.0833V15.0416Z" fill="#575757"/>
<path d="M14.2493 15.0416H12.666V16.6249H14.2493V15.0416Z" fill="#575757"/>
<path d="M18.9999 18.2082H9.5V19.7915H18.9999V18.2082Z" fill="#575757"/>
<path d="M27.7083 19.7915C25.5222 19.7915 23.75 21.5637 23.75 23.7498C23.75 25.9359 25.5222 27.7081 27.7083 27.7081C29.8933 27.7055 31.664 25.9348 31.6666 23.7498C31.6666 21.5637 29.8944 19.7915 27.7083 19.7915ZM27.7083 26.1248C26.3966 26.1248 25.3333 25.0615 25.3333 23.7498C25.3333 22.4382 26.3966 21.3748 27.7083 21.3748C29.0199 21.3748 30.0833 22.4382 30.0833 23.7498C30.0833 25.0615 29.0199 26.1248 27.7083 26.1248Z" fill="#575757"/>
<path d="M5.54033 26.1248H3.95703V27.7081H5.54033V26.1248Z" fill="#575757"/>
<path d="M34.0403 3.95828H32.457V5.54158H34.0403V3.95828Z" fill="#575757"/>
<path d="M5.54033 3.95828H3.95703V5.54158H5.54033V3.95828Z" fill="#575757"/>
</svg>
