<svg width="36" height="36" viewBox="0 0 36 36" fill="none" xmlns="http://www.w3.org/2000/svg">
<path d="M2.91154 9.28868L18 0.57735L33.0885 9.28868V26.7113L18 35.4226L2.91154 26.7113V9.28868Z" stroke="#CCCCCC"/>
<path d="M2.91154 9.28868L18 0.57735L33.0885 9.28868V26.7113L18 35.4226L2.91154 26.7113V9.28868Z" stroke="#CCCCCC"/>
<path d="M13.0167 17.4917C14.2167 19.85 16.15 21.775 18.5083 22.9833L20.3417 21.15C20.5667 20.925 20.9 20.85 21.1917 20.95C22.125 21.2583 23.1333 21.425 24.1667 21.425C24.625 21.425 25 21.8 25 22.2583V25.1667C25 25.625 24.625 26 24.1667 26C16.3417 26 10 19.6583 10 11.8333C10 11.375 10.375 11 10.8333 11H13.75C14.2083 11 14.5833 11.375 14.5833 11.8333C14.5833 12.875 14.75 13.875 15.0583 14.8083C15.15 15.1 15.0833 15.425 14.85 15.6583L13.0167 17.4917Z" fill="#575757"/>
</svg>
