<svg width="36" height="36" viewBox="0 0 36 36" fill="none" xmlns="http://www.w3.org/2000/svg">
<path d="M2.91154 9.28868L18 0.57735L33.0885 9.28868V26.7113L18 35.4226L2.91154 26.7113V9.28868Z" stroke="#CCCCCC"/>
<path d="M2.91154 9.28868L18 0.57735L33.0885 9.28868V26.7113L18 35.4226L2.91154 26.7113V9.28868Z" stroke="#CCCCCC"/>
<path d="M18.5021 9H18.4979C13.8112 9 10 12.8122 10 17.5C10 19.3594 10.5993 21.0828 11.6182 22.4821L10.5589 25.6398L13.8261 24.5954C15.1701 25.4858 16.7734 26 18.5021 26C23.1888 26 27 22.1867 27 17.5C27 12.8133 23.1888 9 18.5021 9ZM23.4481 21.0031C23.243 21.5821 22.4291 22.0624 21.7799 22.2026C21.3358 22.2972 20.7557 22.3726 18.8028 21.563C16.3049 20.5281 14.6963 17.9898 14.5709 17.8251C14.4508 17.6604 13.5615 16.4811 13.5615 15.2613C13.5615 14.0416 14.1809 13.4476 14.4306 13.1926C14.6357 12.9833 14.9746 12.8877 15.2997 12.8877C15.4049 12.8877 15.4995 12.893 15.5845 12.8972C15.8342 12.9079 15.9596 12.9228 16.1242 13.3169C16.3293 13.811 16.8287 15.0308 16.8882 15.1561C16.9487 15.2815 17.0093 15.4515 16.9243 15.6162C16.8446 15.7862 16.7745 15.8616 16.6491 16.0061C16.5237 16.1506 16.4047 16.2611 16.2794 16.4163C16.1646 16.5512 16.035 16.6957 16.1795 16.9454C16.324 17.1898 16.8234 18.0047 17.5586 18.6592C18.5074 19.5039 19.2767 19.7738 19.5519 19.8885C19.7569 19.9735 20.0013 19.9533 20.1511 19.7939C20.3413 19.5889 20.5761 19.2489 20.8152 18.9142C20.9852 18.6741 21.1998 18.6443 21.4251 18.7293C21.6546 18.809 22.869 19.4093 23.1187 19.5336C23.3684 19.659 23.5331 19.7185 23.5936 19.8237C23.6531 19.9289 23.6531 20.4229 23.4481 21.0031Z" fill="#575757"/>
</svg>
