<svg width="36" height="36" viewBox="0 0 36 36" fill="none" xmlns="http://www.w3.org/2000/svg">
<path d="M2.91154 9.28868L18 0.57735L33.0885 9.28868V26.7113L18 35.4226L2.91154 26.7113V9.28868Z" stroke="#CCCCCC"/>
<path d="M2.91154 9.28868L18 0.57735L33.0885 9.28868V26.7113L18 35.4226L2.91154 26.7113V9.28868Z" stroke="#CCCCCC"/>
<path d="M25.875 11H10.875C9.84375 11 9.00937 11.8437 9.00937 12.875L9 24.125C9 25.1563 9.84375 26 10.875 26H25.875C26.9063 26 27.75 25.1563 27.75 24.125V12.875C27.75 11.8437 26.9063 11 25.875 11ZM25.875 14.75L18.375 19.4375L10.875 14.75V12.875L18.375 17.5625L25.875 12.875V14.75Z" fill="#575757"/>
</svg>
