<svg width="33" height="32" viewBox="0 0 33 32" fill="none" xmlns="http://www.w3.org/2000/svg">
<path d="M2.84439 8.28945L16.2757 0.576576L29.707 8.28945V23.7105L16.2757 31.4234L2.84439 23.7105V8.28945Z" stroke="#CCCCCC"/>
<path d="M11.5111 21H8.31905V11.662H11.5111C12.9391 11.662 14.0917 12.1053 14.9691 12.992C15.8557 13.8787 16.2991 14.994 16.2991 16.338C16.2991 17.6913 15.8557 18.8067 14.9691 19.684C14.0917 20.5613 12.9391 21 11.5111 21ZM11.5111 19.964C12.6124 19.964 13.4851 19.6187 14.1291 18.928C14.7731 18.2373 15.0951 17.374 15.0951 16.338C15.0951 15.2927 14.7777 14.4247 14.1431 13.734C13.5084 13.0433 12.6311 12.698 11.5111 12.698H9.48105V19.964H11.5111ZM24.2398 21H18.1218V11.662H24.2398V12.698H19.2838V15.708H24.1418V16.744H19.2838V19.964H24.2398V21Z" fill="#575757"/>
</svg>
