<svg width="33" height="32" viewBox="0 0 33 32" fill="none" xmlns="http://www.w3.org/2000/svg">
<path d="M16.0865 0L30.0178 8V24L16.0865 32L2.15518 24V8L16.0865 0Z" fill="#FFBF7F"/>
<path d="M11.284 21H8.092V11.662H11.284C12.712 11.662 13.8647 12.1053 14.742 12.992C15.6287 13.8787 16.072 14.994 16.072 16.338C16.072 17.6913 15.6287 18.8067 14.742 19.684C13.8647 20.5613 12.712 21 11.284 21ZM11.284 19.964C12.3853 19.964 13.258 19.6187 13.902 18.928C14.546 18.2373 14.868 17.374 14.868 16.338C14.868 15.2927 14.5507 14.4247 13.916 13.734C13.2813 13.0433 12.404 12.698 11.284 12.698H9.254V19.964H11.284ZM24.0127 21H17.8947V11.662H24.0127V12.698H19.0567V15.708H23.9147V16.744H19.0567V19.964H24.0127V21Z" fill="white"/>
<path d="M12.284 21H9.092V11.662H12.284C13.712 11.662 14.8647 12.1053 15.742 12.992C16.6287 13.8787 17.072 14.994 17.072 16.338C17.072 17.6913 16.6287 18.8067 15.742 19.684C14.8647 20.5613 13.712 21 12.284 21ZM12.284 19.964C13.3853 19.964 14.258 19.6187 14.902 18.928C15.546 18.2373 15.868 17.374 15.868 16.338C15.868 15.2927 15.5507 14.4247 14.916 13.734C14.2813 13.0433 13.404 12.698 12.284 12.698H10.254V19.964H12.284ZM25.0127 21H18.8947V11.662H25.0127V12.698H20.0567V15.708H24.9147V16.744H20.0567V19.964H25.0127V21Z" fill="white"/>
</svg>
