<svg width="40" height="40" viewBox="0 0 40 40" fill="none" xmlns="http://www.w3.org/2000/svg">
<path d="M20.6566 6.25247L17.8891 4.82106C13.3972 2.52294 8.03289 2.52247 3.5343 4.82396L0.772344 6.25247C0.297656 6.49817 0 6.98724 0 7.52153V35.4739C0 35.9725 0.26 36.4353 0.685703 36.6939C1.11188 36.9534 1.64234 36.9715 2.08477 36.7429L4.84141 35.3172C8.51852 33.4358 12.91 33.4349 16.5819 35.3143L19.3438 36.7429C19.5499 36.8496 19.7752 36.9025 19.9999 36.9025C20.258 36.9025 20.5152 36.8329 20.7428 36.6943C21.1685 36.4353 21.4285 35.9725 21.4285 35.4739V7.52153C21.4286 6.98724 21.1305 6.4977 20.6566 6.25247ZM18.5714 33.1263L17.8885 32.7734C15.6428 31.6243 13.1799 31.0501 10.7156 31.0501C8.25039 31.0501 5.78375 31.6253 3.53375 32.7762L2.85711 33.1262V8.3906L4.84094 7.36442C8.51859 5.48302 12.91 5.48255 16.5819 7.36153L18.5714 8.3906V33.1263Z" fill="#575757"/>
<path d="M39.2279 6.25255L36.4603 4.82115C31.9674 2.52255 26.6027 2.52256 22.1055 4.82404L19.3436 6.25263C18.8689 6.49834 18.5713 6.9874 18.5713 7.5217V35.474C18.5713 35.9726 18.8313 36.4354 19.257 36.694C19.6836 36.9536 20.2141 36.9717 20.6561 36.7431L23.4122 35.3174C27.0893 33.436 31.4804 33.436 35.1532 35.3145L37.915 36.7431C38.1212 36.8497 38.346 36.9026 38.5712 36.9026C38.8289 36.9026 39.0864 36.8331 39.3141 36.6945C39.7398 36.4354 39.9998 35.9726 39.9998 35.474V7.52162C39.9998 6.98732 39.7017 6.49779 39.2279 6.25255ZM37.1427 33.1264L36.4598 32.7735C34.2146 31.6244 31.7517 31.0501 29.2869 31.0501C26.8217 31.0501 24.355 31.6254 22.1055 32.7763L21.4284 33.1263V8.39068L23.4122 7.36451C27.0893 5.4831 31.4804 5.48357 35.1532 7.36162L37.1427 8.39068V33.1264Z" fill="#575757"/>
<path d="M29 12.5V24.5M29 24.5L32.5 21M29 24.5L25.5 21" stroke="#575757" stroke-width="2" stroke-linecap="round" stroke-linejoin="round"/>
</svg>
