<svg width="34" height="34" viewBox="0 0 34 34" fill="none" xmlns="http://www.w3.org/2000/svg">
<path d="M0.996094 0H25.0352C25.5853 0 26.0312 0.445984 26.0312 0.996094V16.0039H33.0039C33.554 16.0039 34 16.4499 34 17V33.0039C34 33.554 33.554 34 33.0039 34H17C16.4499 34 16.0039 33.554 16.0039 33.0039V26.0312H0.996094C0.445984 26.0312 0 25.5853 0 25.0352V0.996094C0 0.445984 0.445984 0 0.996094 0ZM17.9961 32.0078H32.0078V17.9961H26.0312V25.0352C26.0312 25.5853 25.5853 26.0312 25.0352 26.0312H17.9961V32.0078ZM17.9961 24.0391H24.0391V17.9961H17.9961V24.0391ZM1.99219 24.0391H16.0039V17C16.0039 16.4499 16.4499 16.0039 17 16.0039H24.0391V1.99219H1.99219V24.0391Z" fill="white"/>
<path d="M29.1523 0H33.0039C33.554 0 34 0.445984 34 0.996094V4.84766C34 5.39777 33.554 5.84375 33.0039 5.84375C32.4538 5.84375 32.0078 5.39777 32.0078 4.84766V1.99219H29.1523C28.6022 1.99219 28.1562 1.5462 28.1562 0.996094C28.1562 0.445984 28.6022 0 29.1523 0Z" fill="white"/>
<path d="M4.38268 3.38672H8.23424C8.78435 3.38672 9.23033 3.8327 9.23033 4.38281C9.23033 4.93292 8.78435 5.37891 8.23424 5.37891H6.78745L13.7197 12.3113C14.1087 12.7002 14.1087 13.3309 13.7197 13.7199C13.3307 14.1089 12.7001 14.1089 12.3111 13.7199L5.37877 6.78758V8.23438C5.37877 8.78448 4.93279 9.23047 4.38268 9.23047C3.83257 9.23047 3.38659 8.78448 3.38659 8.23438V4.38314C3.38632 3.83802 3.83104 3.38672 4.38268 3.38672Z" fill="white"/>
<path d="M33.0039 7.63672C33.554 7.63672 34 8.0827 34 8.63281V13.2812C34 13.8314 33.554 14.2773 33.0039 14.2773C32.4538 14.2773 32.0078 13.8314 32.0078 13.2812V8.63281C32.0078 8.0827 32.4538 7.63672 33.0039 7.63672Z" fill="white"/>
<path d="M0.996094 28.1562C1.5462 28.1562 1.99219 28.6022 1.99219 29.1523V32.0078H4.84766C5.39777 32.0078 5.84375 32.4538 5.84375 33.0039C5.84375 33.554 5.39777 34 4.84766 34H0.996094C0.445984 34 0 33.554 0 33.0039V29.1523C0 28.6022 0.445984 28.1562 0.996094 28.1562Z" fill="white"/>
<path d="M8.63281 32.0078H13.2812C13.8314 32.0078 14.2773 32.4538 14.2773 33.0039C14.2773 33.554 13.8314 34 13.2812 34H8.63281C8.0827 34 7.63672 33.554 7.63672 33.0039C7.63672 32.4538 8.0827 32.0078 8.63281 32.0078Z" fill="white"/>
</svg>
