<svg width="19" height="12" viewBox="0 0 19 12" fill="none" xmlns="http://www.w3.org/2000/svg">
<path d="M18.0243 5.42791C17.8622 5.20624 14.0011 0 9.06968 0C4.1383 0 0.276983 5.20624 0.115108 5.4277C-0.0383695 5.63801 -0.0383695 5.92325 0.115108 6.13355C0.276983 6.35523 4.1383 11.5615 9.06968 11.5615C14.0011 11.5615 17.8622 6.35519 18.0243 6.13373C18.1779 5.92346 18.1779 5.63801 18.0243 5.42791ZM9.06968 10.3655C5.4372 10.3655 2.29108 6.90997 1.35976 5.78033C2.28987 4.64968 5.4294 1.19601 9.06968 1.19601C12.702 1.19601 15.8479 4.65089 16.7796 5.78114C15.8495 6.91175 12.71 10.3655 9.06968 10.3655Z" fill="#CCCCCC"/>
<path d="M9.06969 2.19287C7.09127 2.19287 5.48163 3.80251 5.48163 5.78093C5.48163 7.75935 7.09127 9.36899 9.06969 9.36899C11.0481 9.36899 12.6577 7.75935 12.6577 5.78093C12.6577 3.80251 11.0481 2.19287 9.06969 2.19287ZM9.06969 8.17294C7.75067 8.17294 6.67767 7.09991 6.67767 5.78093C6.67767 4.46195 7.75071 3.38891 9.06969 3.38891C10.3887 3.38891 11.4617 4.46195 11.4617 5.78093C11.4617 7.09991 10.3887 8.17294 9.06969 8.17294Z" fill="#CCCCCC"/>
</svg>
