<svg width="42" height="42" viewBox="0 0 42 42" fill="none" xmlns="http://www.w3.org/2000/svg">
<path d="M8.00305 5.54785C6.47497 5.54785 5.23187 6.79079 5.23187 8.31862C5.23187 9.84776 6.47497 11.0918 8.00305 11.0918C9.52982 11.0918 10.7719 9.84776 10.7719 8.31862C10.7719 6.79079 9.52982 5.54785 8.00305 5.54785ZM8.00305 9.45114C7.37961 9.45114 6.8725 8.94312 6.8725 8.31862C6.8725 7.69543 7.3797 7.18847 8.00305 7.18847C8.62518 7.18847 9.13131 7.69551 9.13131 8.31862C9.13123 8.94312 8.62518 9.45114 8.00305 9.45114Z" fill="#575757"/>
<path d="M15.7996 5.54785C14.2728 5.54785 13.0307 6.79079 13.0307 8.31862C13.0307 9.84776 14.2728 11.0918 15.7996 11.0918C17.3263 11.0918 18.5684 9.84776 18.5684 8.31862C18.5684 6.79079 17.3264 5.54785 15.7996 5.54785ZM15.7996 9.45114C15.1774 9.45114 14.6713 8.94312 14.6713 8.31862C14.6713 7.69543 15.1774 7.18847 15.7996 7.18847C16.4217 7.18847 16.9278 7.69551 16.9278 8.31862C16.9278 8.94312 16.4217 9.45114 15.7996 9.45114Z" fill="#575757"/>
<path d="M33.9969 5.54785H25.1215C23.5947 5.54785 22.3526 6.79079 22.3526 8.31862C22.3526 9.84776 23.5947 11.0918 25.1215 11.0918H33.9969C35.5237 11.0918 36.7658 9.84776 36.7658 8.31862C36.7658 6.79079 35.5238 5.54785 33.9969 5.54785ZM33.9969 9.45114H25.1215C24.4994 9.45114 23.9932 8.94312 23.9932 8.31862C23.9932 7.69543 24.4994 7.18847 25.1215 7.18847H33.9969C34.6191 7.18847 35.1252 7.69551 35.1252 8.31862C35.1252 8.94312 34.6191 9.45114 33.9969 9.45114Z" fill="#575757"/>
<path d="M38.3568 2.00977H3.64317C1.63431 2.00977 0 3.6453 0 5.65573V25.0766C0 25.5296 0.367336 25.8969 0.820312 25.8969C1.27329 25.8969 1.64062 25.5296 1.64062 25.0766V14.6294H40.3594V36.3443C40.3594 37.45 39.4611 38.3496 38.3568 38.3496H3.64317C2.53895 38.3496 1.64062 37.45 1.64062 36.3443V32.4503C1.64062 31.9974 1.27329 31.63 0.820312 31.63C0.367336 31.63 0 31.9974 0 32.4503V36.3443C0 38.3547 1.63431 39.9902 3.64317 39.9902H38.3568C40.3657 39.9902 42 38.3547 42 36.3443V5.65573C42 3.6453 40.3657 2.00977 38.3568 2.00977ZM40.3594 12.9887H1.64062V5.65573C1.64062 4.55003 2.53895 3.65039 3.64317 3.65039H38.3568C39.4611 3.65039 40.3594 4.55003 40.3594 5.65573V12.9887Z" fill="#575757"/>
<path d="M0.820312 29.5834C1.27329 29.5834 1.64062 29.2161 1.64062 28.7631V28.7584C1.64062 28.3055 1.27329 27.9404 0.820312 27.9404C0.367336 27.9404 0 28.3101 0 28.763C0 29.216 0.367336 29.5834 0.820312 29.5834Z" fill="#575757"/>
<path d="M19.385 28.4254H21.5749L21.9198 21H19.0401L19.385 28.4254ZM22 30.7388C22 30.3706 21.8583 30.0697 21.5749 29.8358C21.2861 29.597 20.9278 29.4776 20.5 29.4776C20.0722 29.4776 19.7166 29.597 19.4332 29.8358C19.1444 30.0697 19 30.3706 19 30.7388C19 31.107 19.1444 31.4104 19.4332 31.6493C19.7166 31.8831 20.0722 32 20.5 32C20.9278 32 21.2861 31.8831 21.5749 31.6493C21.8583 31.4104 22 31.107 22 30.7388Z" fill="#575757"/>
</svg>
