<svg width="44" height="51" viewBox="0 0 44 51" fill="none" xmlns="http://www.w3.org/2000/svg">
<path d="M22 0L44 12.75V38.25L22 51L0 38.25V12.75L22 0Z" fill="#F2C94C"/>
<path d="M22.0013 31.438C20.2013 31.438 18.6833 30.862 17.4473 29.71C16.2233 28.558 15.6113 27.058 15.6113 25.21C15.6113 23.35 16.2233 21.85 17.4473 20.71C18.6833 19.57 20.2013 19 22.0013 19C24.1853 19 25.8413 19.894 26.9693 21.682L24.8453 22.834C24.5573 22.378 24.1613 22.006 23.6573 21.718C23.1653 21.418 22.6133 21.268 22.0013 21.268C20.9093 21.268 20.0093 21.64 19.3013 22.384C18.5933 23.128 18.2393 24.07 18.2393 25.21C18.2393 26.35 18.5933 27.292 19.3013 28.036C20.0093 28.78 20.9093 29.152 22.0013 29.152C22.5053 29.152 22.9913 29.062 23.4593 28.882C23.9273 28.702 24.2933 28.486 24.5573 28.234V26.794H21.3893V24.562H27.1133V29.17C25.7573 30.682 24.0533 31.438 22.0013 31.438Z" fill="white"/>
</svg>
