<svg width="44" height="51" viewBox="0 0 44 51" fill="none" xmlns="http://www.w3.org/2000/svg">
<path d="M22 0L44 12.75V38.25L22 51L0 38.25V12.75L22 0Z" fill="#E0E0E0"/>
<path d="M19.8 31H17.226V25.96H11.556V31H9V18.994H11.556V23.71H17.226V18.994H19.8V31Z" fill="white"/>
<path d="M27.854 31.216C26.042 31.216 24.542 30.634 23.354 29.47C22.178 28.294 21.59 26.806 21.59 25.006C21.59 23.206 22.178 21.724 23.354 20.56C24.542 19.384 26.042 18.796 27.854 18.796C29.678 18.796 31.178 19.378 32.354 20.542C33.542 21.706 34.136 23.194 34.136 25.006C34.136 26.818 33.542 28.306 32.354 29.47C31.178 30.634 29.678 31.216 27.854 31.216ZM25.208 27.832C25.88 28.576 26.762 28.948 27.854 28.948C28.946 28.948 29.828 28.576 30.5 27.832C31.172 27.088 31.508 26.146 31.508 25.006C31.508 23.866 31.172 22.924 30.5 22.18C29.828 21.436 28.946 21.064 27.854 21.064C26.762 21.064 25.88 21.436 25.208 22.18C24.548 22.924 24.218 23.866 24.218 25.006C24.218 26.146 24.548 27.088 25.208 27.832Z" fill="white"/>
</svg>
