<svg width="40" height="40" viewBox="0 0 40 40" fill="none" xmlns="http://www.w3.org/2000/svg">
<path d="M34.1406 0H5.85938C2.62878 0 0 2.62878 0 5.85938V34.1406C0 37.3712 2.62878 40 5.85938 40H34.1406C37.3712 40 40 37.3712 40 34.1406V5.85938C40 2.62878 37.3712 0 34.1406 0ZM20.0781 30.4688C14.2624 30.4688 9.53125 25.7376 9.53125 19.9219C9.53125 14.1061 14.2624 9.375 20.0781 9.375C25.8939 9.375 30.625 14.1061 30.625 19.9219C30.625 25.7376 25.8939 30.4688 20.0781 30.4688ZM31.7969 11.7188C29.8584 11.7188 28.2812 10.1416 28.2812 8.20312C28.2812 6.26465 29.8584 4.6875 31.7969 4.6875C33.7354 4.6875 35.3125 6.26465 35.3125 8.20312C35.3125 10.1416 33.7354 11.7188 31.7969 11.7188Z" fill="#CCCCCC"/>
<path d="M31.7969 7.03125C31.1502 7.03125 30.625 7.55646 30.625 8.20312C30.625 8.84979 31.1502 9.375 31.7969 9.375C32.4435 9.375 32.9688 8.84979 32.9688 8.20312C32.9688 7.55646 32.4435 7.03125 31.7969 7.03125Z" fill="#CCCCCC"/>
<path d="M20.0781 11.7188C15.5554 11.7188 11.875 15.3992 11.875 19.9219C11.875 24.4446 15.5554 28.125 20.0781 28.125C24.6008 28.125 28.2812 24.4446 28.2812 19.9219C28.2812 15.3992 24.6008 11.7188 20.0781 11.7188Z" fill="#CCCCCC"/>
</svg>
