<svg width="43" height="43" viewBox="0 0 43 43" fill="none" xmlns="http://www.w3.org/2000/svg">
<path d="M41.7402 0H11.3379C10.6422 0 10.0781 0.564039 10.0781 1.25977V20.2402H1.25977C0.564039 20.2402 0 20.8043 0 21.5V41.7402C0 42.436 0.564039 43 1.25977 43H21.5C22.1957 43 22.7598 42.436 22.7598 41.7402V32.9219H41.7402C42.436 32.9219 43 32.3578 43 31.6621V1.25977C43 0.564039 42.436 0 41.7402 0ZM20.2402 40.4805H2.51953V22.7598H10.0781V31.6621C10.0781 32.3578 10.6422 32.9219 11.3379 32.9219H20.2402V40.4805ZM20.2402 30.4023H12.5977V22.7598H20.2402V30.4023ZM40.4805 30.4023H22.7598V21.5C22.7598 20.8043 22.1957 20.2402 21.5 20.2402H12.5977V2.51953H40.4805V30.4023Z" fill="white"/>
<path d="M6.13086 0H1.25977C0.564039 0 0 0.564039 0 1.25977V6.13086C0 6.82659 0.564039 7.39062 1.25977 7.39062C1.95549 7.39062 2.51953 6.82659 2.51953 6.13086V2.51953H6.13086C6.82659 2.51953 7.39062 1.95549 7.39062 1.25977C7.39062 0.564039 6.82659 0 6.13086 0Z" fill="white"/>
<path d="M37.4571 4.2832H32.586C31.8903 4.2832 31.3263 4.84724 31.3263 5.54297C31.3263 6.2387 31.8903 6.80273 32.586 6.80273H34.4158L25.6485 15.5701C25.1565 16.062 25.1565 16.8597 25.6485 17.3517C26.1405 17.8437 26.9381 17.8436 27.43 17.3516L36.1974 8.5843V10.4141C36.1974 11.1098 36.7614 11.6738 37.4571 11.6738C38.1529 11.6738 38.7169 11.1098 38.7169 10.4141V5.54339C38.7172 4.85396 38.1548 4.2832 37.4571 4.2832Z" fill="white"/>
<path d="M1.25977 9.6582C0.564039 9.6582 0 10.2222 0 10.918V16.7969C0 17.4926 0.564039 18.0566 1.25977 18.0566C1.95549 18.0566 2.51953 17.4926 2.51953 16.7969V10.918C2.51953 10.2222 1.95549 9.6582 1.25977 9.6582Z" fill="white"/>
<path d="M41.7402 35.6094C41.0445 35.6094 40.4805 36.1734 40.4805 36.8691V40.4805H36.8691C36.1734 40.4805 35.6094 41.0445 35.6094 41.7402C35.6094 42.436 36.1734 43 36.8691 43H41.7402C42.436 43 43 42.436 43 41.7402V36.8691C43 36.1734 42.436 35.6094 41.7402 35.6094Z" fill="white"/>
<path d="M32.082 40.4805H26.2031C25.5074 40.4805 24.9434 41.0445 24.9434 41.7402C24.9434 42.436 25.5074 43 26.2031 43H32.082C32.7778 43 33.3418 42.436 33.3418 41.7402C33.3418 41.0445 32.7778 40.4805 32.082 40.4805Z" fill="white"/>
</svg>
