<svg width="66" height="65" viewBox="0 0 66 65" fill="none" xmlns="http://www.w3.org/2000/svg">
<g filter="url(#filter0_i)">
<path d="M5.51553 16.5395L33.3135 0.576575L61.1115 16.5395V48.4605L33.3135 64.4234L5.51553 48.4605V16.5395Z" stroke="#CCCCCC"/>
</g>
<g clip-path="url(#clip0)">
<path d="M45.8392 37.2682H45.5459V35.5182C45.5459 33.9106 44.2299 32.6016 42.6135 32.6016C40.9971 32.6016 39.6812 33.9106 39.6812 35.5182V37.2682H39.3878C38.2559 37.2682 37.3351 38.184 37.3351 39.31V43.3932C37.3351 44.5192 38.2559 45.435 39.3878 45.435H45.8392C46.9711 45.435 47.8919 44.5192 47.8919 43.3932V39.31C47.8919 38.184 46.9711 37.2682 45.8392 37.2682ZM41.4406 35.5182C41.4406 34.8754 41.9672 34.3516 42.6135 34.3516C43.2598 34.3516 43.7864 34.8754 43.7864 35.5182V37.2682H41.4406V35.5182Z" fill="#CCCCCC"/>
<path d="M35.5757 39.31C35.5757 37.7349 36.5458 36.3827 37.9217 35.81V35.5182C37.9217 34.8089 38.0939 34.1439 38.3802 33.5406C37.4934 32.9491 36.4283 32.6016 35.2825 32.6016H25.3121C22.2402 32.6016 19.7406 35.0877 19.7406 38.1432V42.2266C19.7406 42.7096 20.1347 43.1016 20.6203 43.1016H35.5757V39.31Z" fill="#CCCCCC"/>
<path d="M36.1622 24.435C36.1622 27.6566 33.5363 30.2682 30.2973 30.2682C27.0582 30.2682 24.4324 27.6566 24.4324 24.435C24.4324 21.2133 27.0582 18.6016 30.2973 18.6016C33.5363 18.6016 36.1622 21.2133 36.1622 24.435Z" fill="#CCCCCC"/>
</g>
<defs>
<filter id="filter0_i" x="5.0155" y="0" width="56.596" height="69" filterUnits="userSpaceOnUse" color-interpolation-filters="sRGB">
<feFlood flood-opacity="0" result="BackgroundImageFix"/>
<feBlend mode="normal" in="SourceGraphic" in2="BackgroundImageFix" result="shape"/>
<feColorMatrix in="SourceAlpha" type="matrix" values="0 0 0 0 0 0 0 0 0 0 0 0 0 0 0 0 0 0 127 0" result="hardAlpha"/>
<feOffset dy="4"/>
<feGaussianBlur stdDeviation="2"/>
<feComposite in2="hardAlpha" operator="arithmetic" k2="-1" k3="1"/>
<feColorMatrix type="matrix" values="0 0 0 0 0 0 0 0 0 0 0 0 0 0 0 0 0 0 0.25 0"/>
<feBlend mode="normal" in2="shape" result="effect1_innerShadow"/>
</filter>
<clipPath id="clip0">
<rect width="28.1512" height="28" fill="white" transform="translate(19.7406 18)"/>
</clipPath>
</defs>
</svg>
