<svg width="40" height="40" viewBox="0 0 40 40" fill="none" xmlns="http://www.w3.org/2000/svg">
<path d="M17.0834 18.75H1.25C0.559998 18.75 0 18.19 0 17.5C0 16.81 0.559998 16.25 1.25 16.25H17.0834C17.7734 16.25 18.3334 16.81 18.3334 17.5C18.3334 18.19 17.7734 18.75 17.0834 18.75Z" fill="#575757"/>
<path d="M10.8337 25C10.5135 25 10.1937 24.8782 9.9502 24.6335C9.46191 24.1449 9.46191 23.3533 9.9502 22.865L15.317 17.4985L9.9502 12.1335C9.46191 11.6449 9.46191 10.8533 9.9502 10.365C10.4385 9.87671 11.2301 9.87671 11.7187 10.365L17.9687 16.615C18.457 17.1033 18.457 17.8949 17.9687 18.3835L11.7187 24.6335C11.4736 24.8782 11.1535 25 10.8337 25Z" fill="#575757"/>
<path d="M26.6661 40C24.8278 40 23.333 38.5049 23.333 36.6666V6.66656C23.333 5.24169 24.2397 3.97003 25.5895 3.50158L35.6029 0.163264C37.8429 -0.523381 39.9996 1.1383 39.9996 3.33343V33.3334C39.9996 34.7568 39.0929 36.0266 37.7446 36.4966L27.7278 39.8367C27.3629 39.9499 27.0247 40 26.6661 40ZM36.6661 2.49999C36.5578 2.49999 36.4662 2.51342 36.368 2.54333L26.3964 5.86822C26.0695 5.98175 25.833 6.31164 25.833 6.66656V36.6666C25.833 37.2351 26.4495 37.6184 26.9646 37.4567L36.9362 34.1318C37.2612 34.0182 37.4996 33.6883 37.4996 33.3334V3.33343C37.4996 2.87506 37.1263 2.49999 36.6661 2.49999Z" fill="#575757"/>
<path d="M14.583 8.33344C13.893 8.33344 13.333 7.77344 13.333 7.08344V4.58344C13.333 2.05505 15.3878 0 17.9161 0H36.6661C37.3561 0 37.9161 0.559998 37.9161 1.25C37.9161 1.94 37.3561 2.5 36.6661 2.5H17.9161C16.7678 2.5 15.833 3.43506 15.833 4.58344V7.08344C15.833 7.77344 15.273 8.33344 14.583 8.33344Z" fill="#575757"/>
<path d="M24.583 35H17.9161C15.3878 35 13.333 32.9449 13.333 30.4166V27.9166C13.333 27.2266 13.893 26.6666 14.583 26.6666C15.273 26.6666 15.833 27.2266 15.833 27.9166V30.4166C15.833 31.5649 16.7678 32.5 17.9161 32.5H24.583C25.273 32.5 25.833 33.06 25.833 33.75C25.833 34.44 25.273 35 24.583 35Z" fill="#575757"/>
</svg>
