<svg width="48" height="48" viewBox="0 0 48 48" fill="none" xmlns="http://www.w3.org/2000/svg">
<g opacity="0.4" clip-path="url(#clip0)">
<path d="M33.2124 28.4832C38.9743 20.3469 37.0472 9.08055 28.9109 3.32005C20.7747 -2.44046 9.50829 -0.514784 3.74778 7.62288C-2.01272 15.7592 -0.08705 27.0241 8.05061 32.7847C13.8579 36.8962 21.5358 37.2127 27.6611 33.5954L40.9701 46.8246C42.4072 48.3373 44.7981 48.3979 46.3108 46.9609C47.8236 45.5252 47.8841 43.1343 46.4485 41.6216C46.4031 41.5734 46.359 41.5293 46.3108 41.4839L33.2124 28.4832ZM18.4691 29.7165C12.0396 29.7179 6.82693 24.5093 6.8228 18.0799C6.82143 11.6504 12.03 6.43774 18.4608 6.43499C24.882 6.43223 30.0919 11.6325 30.1043 18.0537C30.1153 24.4846 24.9096 29.7055 18.4773 29.7165C18.4746 29.7165 18.4732 29.7165 18.4691 29.7165Z" fill="#575757"/>
</g>
<defs>
<clipPath id="clip0">
<rect width="48" height="48" fill="white"/>
</clipPath>
</defs>
</svg>
