<svg width="20" height="12" viewBox="0 0 20 12" fill="none" xmlns="http://www.w3.org/2000/svg">
<path d="M19.0243 5.42791C18.8622 5.20624 15.0011 0 10.0697 0C5.1383 0 1.27698 5.20624 1.11511 5.4277C0.961631 5.63801 0.961631 5.92325 1.11511 6.13355C1.27698 6.35523 5.1383 11.5615 10.0697 11.5615C15.0011 11.5615 18.8622 6.35519 19.0243 6.13373C19.1779 5.92346 19.1779 5.63801 19.0243 5.42791ZM10.0697 10.3655C6.4372 10.3655 3.29108 6.90997 2.35976 5.78033C3.28987 4.64968 6.4294 1.19601 10.0697 1.19601C13.702 1.19601 16.8479 4.65089 17.7796 5.78114C16.8495 6.91175 13.71 10.3655 10.0697 10.3655Z" fill="#CCCCCC"/>
<path d="M10.0697 2.19287C8.09127 2.19287 6.48163 3.80251 6.48163 5.78093C6.48163 7.75935 8.09127 9.36899 10.0697 9.36899C12.0481 9.36899 13.6577 7.75935 13.6577 5.78093C13.6577 3.80251 12.0481 2.19287 10.0697 2.19287ZM10.0697 8.17294C8.75067 8.17294 7.67767 7.09991 7.67767 5.78093C7.67767 4.46195 8.7507 3.38891 10.0697 3.38891C11.3887 3.38891 12.4617 4.46195 12.4617 5.78093C12.4617 7.09991 11.3887 8.17294 10.0697 8.17294Z" fill="#CCCCCC"/>
<line x1="0.757179" y1="11.5629" x2="18.7572" y2="1.56292" stroke="#CCCCCC"/>
</svg>
