<svg width="40" height="40" viewBox="0 0 40 40" fill="none" xmlns="http://www.w3.org/2000/svg">
<path d="M31.4062 12.9688C30.975 12.9688 30.625 13.3187 30.625 13.75C30.625 14.1812 30.975 14.5312 31.4062 14.5312C31.8375 14.5312 32.1875 14.1812 32.1875 13.75C32.1875 13.3187 31.8375 12.9688 31.4062 12.9688Z" fill="#575757"/>
<path d="M37.6562 9.84375H29.0766L26.5995 4.88961C26.1998 4.09031 25.3965 3.59375 24.5031 3.59375H15.4969C14.6034 3.59375 13.8001 4.09031 13.4005 4.88969L10.9234 9.84375H9.375V9.0625C9.375 7.77016 8.32359 6.71875 7.03125 6.71875H5.46875C4.17641 6.71875 3.125 7.77016 3.125 9.0625V9.84375H2.34375C1.05141 9.84375 0 10.8952 0 12.1875C0 14.3105 0 33.2366 0 34.0625C0 35.3548 1.05141 36.4062 2.34375 36.4062H37.6562C38.9486 36.4062 40 35.3548 40 34.0625C40 31.9395 40 13.0134 40 12.1875C40 10.8952 38.9486 9.84375 37.6562 9.84375ZM14.798 5.58844C14.9313 5.32187 15.1991 5.15625 15.4969 5.15625H24.5031C24.8009 5.15625 25.0688 5.32187 25.202 5.58844L27.3297 9.84375H12.6703L14.798 5.58844ZM4.6875 9.0625C4.6875 8.63172 5.03797 8.28125 5.46875 8.28125H7.03125C7.46203 8.28125 7.8125 8.63172 7.8125 9.0625V9.84375H4.6875V9.0625ZM1.5625 17.6484H11.4415C10.4032 19.2704 9.84375 21.1712 9.84375 23.125C9.84375 25.0789 10.4033 26.9721 11.4414 28.5938H1.5625V17.6484ZM20 14.5312C24.6979 14.5312 28.5938 18.3374 28.5938 23.125C28.5938 27.9072 24.7034 31.7188 20 31.7188C15.2924 31.7188 11.4062 27.903 11.4062 23.125C11.4062 18.3434 15.2961 14.5312 20 14.5312ZM38.4375 34.0625C38.4375 34.4933 38.087 34.8438 37.6562 34.8438H2.34375C1.91297 34.8438 1.5625 34.4933 1.5625 34.0625V30.1562H12.6739C14.5829 32.1462 17.2324 33.2812 20 33.2812C22.768 33.2812 25.4178 32.1459 27.3262 30.1562H38.4375V34.0625ZM38.4375 28.5938H28.5585C29.5968 26.9718 30.1562 25.0788 30.1562 23.125C30.1562 21.1712 29.5968 19.2782 28.5585 17.6562H38.4375V28.5938ZM38.4375 16.0938H27.3261C25.4172 14.1038 22.7677 12.9688 20 12.9688C17.232 12.9688 14.5823 14.1041 12.6738 16.0938H1.5625V12.1875C1.5625 11.7567 1.91297 11.4062 2.34375 11.4062C3.0532 11.4062 36.558 11.4062 37.6562 11.4062C38.087 11.4062 38.4375 11.7567 38.4375 12.1875V16.0938Z" fill="#575757"/>
<path d="M22.3438 6.71875H17.6562C17.2248 6.71875 16.875 7.06852 16.875 7.5C16.875 7.93148 17.2248 8.28125 17.6562 8.28125H22.3438C22.7752 8.28125 23.125 7.93148 23.125 7.5C23.125 7.06852 22.7752 6.71875 22.3438 6.71875Z" fill="#575757"/>
<path d="M20 16.0938C16.123 16.0938 12.9688 19.248 12.9688 23.125C12.9688 27.002 16.123 30.1562 20 30.1562C23.877 30.1562 27.0312 27.002 27.0312 23.125C27.0312 19.248 23.877 16.0938 20 16.0938ZM20 28.5938C16.9845 28.5938 14.5312 26.1405 14.5312 23.125C14.5312 20.1095 16.9845 17.6562 20 17.6562C23.0155 17.6562 25.4688 20.1095 25.4688 23.125C25.4688 26.1405 23.0155 28.5938 20 28.5938Z" fill="#575757"/>
<path d="M20 19.2188C17.8461 19.2188 16.0938 20.9711 16.0938 23.125C16.0938 23.5565 16.4435 23.9062 16.875 23.9062C17.3065 23.9062 17.6562 23.5565 17.6562 23.125C17.6562 21.8327 18.7077 20.7812 20 20.7812C20.4314 20.7812 20.7812 20.4315 20.7812 20C20.7812 19.5685 20.4314 19.2188 20 19.2188Z" fill="#575757"/>
<path d="M36.0938 12.9688H34.5312C34.0998 12.9688 33.75 13.3185 33.75 13.75C33.75 14.1815 34.0998 14.5312 34.5312 14.5312H36.0938C36.5252 14.5312 36.875 14.1815 36.875 13.75C36.875 13.3185 36.5252 12.9688 36.0938 12.9688Z" fill="#575757"/>
</svg>
