<svg width="40" height="40" viewBox="0 0 40 40" fill="none" xmlns="http://www.w3.org/2000/svg">
<path d="M37.8723 0H2.12766C0.95234 0 0 0.952766 0 2.12766V37.8723C0 39.0472 0.95234 40 2.12766 40H37.8723C39.0477 40 40 39.0472 40 37.8723V2.12766C40 0.952766 39.0477 0 37.8723 0ZM22.5583 27.3838C22.4855 27.3838 22.4129 27.3824 22.3405 27.3797C20.506 27.3103 17.0824 28.31 16.6099 30.084C16.5934 30.1461 16.5789 30.1998 16.5668 30.2438C15.7421 33.2357 13.317 36.2302 13.1294 36.4757C12.997 36.646 12.7072 36.5928 12.677 36.3664C12.6247 35.9851 12.0055 32.2094 12.7336 29.1302C13.0356 27.8493 14.517 21.5746 15.0175 19.455C15.1251 18.9992 15.0655 18.5246 14.9259 18.0776C14.7601 17.5465 14.5753 16.732 14.5753 15.7404C14.5753 12.9187 16.2119 10.8115 18.2481 10.8115C19.98 10.8115 20.8162 12.1119 20.8162 13.6706C20.8162 15.4115 19.7077 18.0149 19.1357 20.4272C18.6579 22.4481 20.1477 24.0953 22.14 24.0953C25.7477 24.0953 28.177 19.4613 28.177 13.9711C28.177 9.7983 25.3685 6.67362 20.2553 6.67362C14.4804 6.67362 10.8791 10.9817 10.8791 15.794C10.8791 17.4528 11.3694 18.6238 12.1366 19.5285C12.4881 19.9447 12.5379 20.1119 12.4102 20.5898C12.317 20.9409 12.1094 21.7834 12.0221 22.1174C11.8949 22.6004 11.5043 22.7732 11.0681 22.5945C8.40851 21.5085 7.16851 18.5953 7.16851 15.32C7.16851 9.91106 11.7306 3.42426 20.7779 3.42426C28.0485 3.42426 32.8332 8.68468 32.8332 14.3328C32.8323 21.8026 28.6787 27.3838 22.5583 27.3838Z" fill="#CCCCCC"/>
</svg>
