<svg width="57" height="113" viewBox="0 0 57 113" fill="none" xmlns="http://www.w3.org/2000/svg">
<path d="M0.5 16.5406L28.5 0.575684L56.5 16.5406V77H28.5H0.5V16.5406Z" fill="white" stroke="#CCCCCC"/>
<path d="M40.9584 38.6666H40.6666V36.9166C40.6666 35.309 39.3577 34 37.75 34C36.1423 34 34.8334 35.309 34.8334 36.9166V38.6666H34.5416C33.4158 38.6666 32.5 39.5824 32.5 40.7084V44.7916C32.5 45.9176 33.4158 46.8334 34.5416 46.8334H40.9584C42.0842 46.8334 43 45.9176 43 44.7916V40.7084C43 39.5824 42.0842 38.6666 40.9584 38.6666ZM36.5834 36.9166C36.5834 36.2738 37.1072 35.75 37.75 35.75C38.3928 35.75 38.9166 36.2738 38.9166 36.9166V38.6666H36.5834V36.9166Z" fill="#CCCCCC"/>
<path d="M30.75 40.7084C30.75 39.1333 31.7149 37.7811 33.0834 37.2084V36.9166C33.0834 36.2073 33.2547 35.5423 33.5395 34.939C32.6574 34.3475 31.5981 34 30.4584 34H20.5416C17.4861 34 15 36.4861 15 39.5416V43.625C15 44.108 15.392 44.5 15.875 44.5H30.75V40.7084Z" fill="#CCCCCC"/>
<path d="M31.3334 25.8334C31.3334 29.055 28.7217 31.6666 25.5 31.6666C22.2784 31.6666 19.6666 29.055 19.6666 25.8334C19.6666 22.6117 22.2784 20 25.5 20C28.7217 20 31.3334 22.6117 31.3334 25.8334Z" fill="#CCCCCC"/>
<rect y="76" width="57" height="4" fill="white"/>
</svg>
