<svg width="66" height="65" viewBox="0 0 66 65" fill="none" xmlns="http://www.w3.org/2000/svg">
<path d="M5.51541 16.5395L33.3134 0.576575L61.1114 16.5395V48.4605L33.3134 64.4234L5.51541 48.4605V16.5395Z" stroke="#CCCCCC"/>
<g clip-path="url(#clip0)">
<path d="M45.8391 37.2682H45.5457V35.5182C45.5457 33.9106 44.2297 32.6016 42.6133 32.6016C40.9969 32.6016 39.681 33.9106 39.681 35.5182V37.2682H39.3876C38.2557 37.2682 37.335 38.184 37.335 39.31V43.3932C37.335 44.5192 38.2557 45.435 39.3876 45.435H45.8391C46.9709 45.435 47.8917 44.5192 47.8917 43.3932V39.31C47.8917 38.184 46.9709 37.2682 45.8391 37.2682ZM41.4404 35.5182C41.4404 34.8754 41.9671 34.3516 42.6133 34.3516C43.2596 34.3516 43.7862 34.8754 43.7862 35.5182V37.2682H41.4404V35.5182Z" fill="#CCCCCC"/>
<path d="M35.5756 39.31C35.5756 37.7349 36.5457 36.3827 37.9216 35.81V35.5182C37.9216 34.8089 38.0938 34.1439 38.3801 33.5406C37.4933 32.9491 36.4282 32.6016 35.2824 32.6016H25.312C22.2401 32.6016 19.7405 35.0877 19.7405 38.1432V42.2266C19.7405 42.7096 20.1346 43.1016 20.6202 43.1016H35.5756V39.31Z" fill="#CCCCCC"/>
<path d="M36.1622 24.435C36.1622 27.6566 33.5363 30.2682 30.2973 30.2682C27.0582 30.2682 24.4324 27.6566 24.4324 24.435C24.4324 21.2133 27.0582 18.6016 30.2973 18.6016C33.5363 18.6016 36.1622 21.2133 36.1622 24.435Z" fill="#CCCCCC"/>
</g>
<defs>
<clipPath id="clip0">
<rect width="28.1512" height="28" fill="white" transform="translate(19.7405 18)"/>
</clipPath>
</defs>
</svg>
