<svg width="40" height="40" viewBox="0 0 40 40" fill="none" xmlns="http://www.w3.org/2000/svg">
<path d="M15 17.5259C10.405 17.5259 6.66656 13.7878 6.66656 9.19281C6.66656 4.59778 10.405 0.859375 15 0.859375C19.595 0.859375 23.3334 4.59778 23.3334 9.19281C23.3334 13.7878 19.595 17.5259 15 17.5259ZM15 3.35938C11.7834 3.35938 9.16656 5.97595 9.16656 9.19281C9.16656 12.4094 11.7834 15.0259 15 15.0259C18.2166 15.0259 20.8334 12.4094 20.8334 9.19281C20.8334 5.97595 18.2166 3.35938 15 3.35938Z" fill="#575757"/>
<path d="M37.0834 39.1927H27.9166C26.3083 39.1927 25 37.8845 25 36.2759V30.4427C25 28.8342 26.3083 27.5259 27.9166 27.5259H37.0834C38.6917 27.5259 40 28.8342 40 30.4427V36.2759C40 37.8845 38.6917 39.1927 37.0834 39.1927ZM27.9166 30.0259C27.6868 30.0259 27.5 30.2126 27.5 30.4427V36.2759C27.5 36.506 27.6868 36.6927 27.9166 36.6927H37.0834C37.3132 36.6927 37.5 36.506 37.5 36.2759V30.4427C37.5 30.2126 37.3132 30.0259 37.0834 30.0259H27.9166Z" fill="#575757"/>
<path d="M35.4166 30.0259H29.5834C28.8934 30.0259 28.3334 29.4659 28.3334 28.7759V25.0259C28.3334 22.7295 30.2032 20.8594 32.5 20.8594C34.7968 20.8594 36.6666 22.7295 36.6666 25.0259V28.7759C36.6666 29.4659 36.1066 30.0259 35.4166 30.0259ZM30.8334 27.5259H34.1666V25.0259C34.1666 24.1077 33.4183 23.3594 32.5 23.3594C31.5817 23.3594 30.8334 24.1077 30.8334 25.0259V27.5259Z" fill="#575757"/>
<path d="M20.8334 35.8594H1.25C0.559998 35.8594 0 35.2994 0 34.6094V28.7759C0 24.411 3.55164 20.8594 7.91656 20.8594H22.5C23.8934 20.8594 25.2649 21.2277 26.4651 21.926C27.0618 22.2726 27.2632 23.0377 26.9168 23.6343C26.5701 24.2328 25.8051 24.4327 25.2066 24.086C24.3884 23.6111 23.4515 23.3594 22.5 23.3594H7.91656C4.93011 23.3594 2.5 25.7895 2.5 28.7759V33.3594H20.8334C21.5234 33.3594 22.0834 33.9194 22.0834 34.6094C22.0834 35.2994 21.5234 35.8594 20.8334 35.8594Z" fill="#575757"/>
</svg>
