<svg width="33" height="32" viewBox="0 0 33 32" fill="none" xmlns="http://www.w3.org/2000/svg">
<path d="M2.7579 8.28945L16.1892 0.576576L29.6205 8.28945V23.7105L16.1892 31.4234L2.7579 23.7105V8.28945Z" stroke="#CCCCCC"/>
<path d="M14.0032 21H12.6312L10.2512 17.29H8.38919V21H7.22719V11.662H10.9792C11.8472 11.662 12.5519 11.9187 13.0932 12.432C13.6345 12.9453 13.9052 13.6267 13.9052 14.476C13.9052 15.2787 13.6719 15.918 13.2052 16.394C12.7385 16.87 12.1645 17.136 11.4832 17.192L14.0032 21ZM10.8392 16.268C11.3899 16.268 11.8379 16.1 12.1832 15.764C12.5285 15.428 12.7012 14.9987 12.7012 14.476C12.7012 13.9533 12.5285 13.5287 12.1832 13.202C11.8379 12.866 11.3899 12.698 10.8392 12.698H8.38919V16.268H10.8392ZM22.3808 20.16C21.7368 20.832 20.7941 21.168 19.5528 21.168C18.3114 21.168 17.3641 20.832 16.7108 20.16C16.0668 19.4787 15.7448 18.55 15.7448 17.374V11.662H16.9068V17.346C16.9068 18.214 17.1354 18.8953 17.5928 19.39C18.0501 19.8847 18.7034 20.132 19.5528 20.132C20.4021 20.132 21.0554 19.8847 21.5128 19.39C21.9701 18.8953 22.1988 18.214 22.1988 17.346V11.662H23.3608V17.36C23.3608 18.5453 23.0341 19.4787 22.3808 20.16Z" fill="#575757"/>
</svg>
