<svg width="33" height="32" viewBox="0 0 33 32" fill="none" xmlns="http://www.w3.org/2000/svg">
<path d="M16.0865 0L30.0178 8V24L16.0865 32L2.15518 24V8L16.0865 0Z" fill="#FFBF7F"/>
<path d="M14.5165 21H12.2345L10.4005 17.682H8.94447V21H6.95647V11.662H11.3245C12.2858 11.662 13.0465 11.942 13.6065 12.502C14.1758 13.062 14.4605 13.7853 14.4605 14.672C14.4605 15.4373 14.2598 16.058 13.8585 16.534C13.4665 17.01 12.9858 17.3133 12.4165 17.444L14.5165 21ZM11.0305 15.932C11.4411 15.932 11.7771 15.82 12.0385 15.596C12.2998 15.3627 12.4305 15.0547 12.4305 14.672C12.4305 14.2893 12.2998 13.986 12.0385 13.762C11.7771 13.5287 11.4411 13.412 11.0305 13.412H8.94447V15.932H11.0305ZM23.3026 20.118C22.5932 20.818 21.5479 21.168 20.1666 21.168C18.7852 21.168 17.7352 20.818 17.0166 20.118C16.3072 19.4087 15.9526 18.4613 15.9526 17.276V11.662H17.9686V17.206C17.9686 17.878 18.1599 18.4147 18.5426 18.816C18.9252 19.208 19.4666 19.404 20.1666 19.404C20.8666 19.404 21.4032 19.208 21.7766 18.816C22.1592 18.4147 22.3506 17.878 22.3506 17.206V11.662H24.3806V17.262C24.3806 18.466 24.0212 19.418 23.3026 20.118Z" fill="white"/>
</svg>
