<svg width="45" height="45" viewBox="0 0 45 45" fill="none" xmlns="http://www.w3.org/2000/svg">
<g clip-path="url(#clip0)">
<path d="M2.24505 34.1016H3.9663C4.55692 36.0935 6.27185 37.5462 8.33411 37.8014C10.3964 38.0567 12.4136 37.066 13.4718 35.2779C14.3754 36.8079 15.9954 37.7726 17.7715 37.8373C19.5475 37.902 21.2336 37.0582 22.2461 35.5978H24.4047C25.06 36.8839 26.3418 37.7318 27.7818 37.8317C29.2218 37.9315 30.6084 37.2692 31.4353 36.0858C32.2615 37.2692 33.6487 37.9322 35.0887 37.8324C36.5287 37.7325 37.8105 36.8846 38.4658 35.5978H43.5079C44.0578 35.5957 44.5619 35.2927 44.8214 34.8082C45.0808 34.3238 45.0548 33.736 44.7525 33.2775L42.6403 30.1022C42.5208 29.1249 41.9822 28.2481 41.1651 27.6996V22.1253C41.1651 20.5918 39.5648 19.2291 38.8736 18.713C38.5523 17.4755 37.5447 16.5354 36.2875 16.302L38.1325 9.11042C38.2661 8.24699 38.0165 7.36878 37.4484 6.70574C36.8803 6.04199 36.0513 5.66019 35.178 5.65878H30.6949C29.8075 5.65808 28.9659 6.05113 28.3971 6.73175C27.8283 7.41238 27.5899 8.31027 27.7467 9.18355L29.5783 16.3069C28.4491 16.5319 27.5104 17.3131 27.0843 18.3832H26.0683C25.7498 17.4868 24.9025 16.8877 23.9512 16.8863H22.4543C21.5029 16.8877 20.655 17.4868 20.3358 18.3832H19.4604V13.7546C20.4904 13.3918 21.1092 12.3385 20.9236 11.262C20.7386 10.1855 19.8042 9.39941 18.7115 9.40152H2.24505C1.15239 9.39941 0.217939 10.1855 0.0330176 11.262C-0.151904 12.3385 0.466143 13.3918 1.49622 13.7546V27.7003C0.594814 28.291 0.0365332 29.2824 -0.000732422 30.3589V31.8558C-2.92968e-05 33.0961 1.00544 34.1016 2.24505 34.1016ZM2.24505 32.6046C1.83161 32.6046 1.49692 32.2692 1.49692 31.8565V31.1084H3.967C3.82005 31.5935 3.74411 32.0984 3.74271 32.6053H2.24505V32.6046ZM5.23896 32.6046C5.23896 30.9938 6.26974 29.5636 7.79763 29.0546C9.32552 28.5455 11.0088 29.0707 11.9749 30.3596H8.98099C7.74067 30.3596 6.73591 31.365 6.73591 32.6046C6.73591 33.8442 7.74138 34.8497 8.98099 34.8497H11.9749C11.0081 36.1385 9.32552 36.6638 7.79763 36.1547C6.26974 35.6457 5.23896 34.2155 5.23896 32.6046ZM8.98169 33.3528C8.56825 33.3528 8.23356 33.0174 8.23356 32.6046C8.23356 32.1919 8.56896 31.8565 8.98169 31.8565H17.9634C18.3768 31.8565 18.7115 32.1919 18.7115 32.6046C18.7115 33.0174 18.3761 33.3528 17.9634 33.3528H8.98169ZM14.9695 34.8497H17.9634C19.2037 34.8497 20.2085 33.8442 20.2085 32.6046C20.2085 31.365 19.203 30.3596 17.9634 30.3596H14.9695C15.9363 29.0707 17.6189 28.5455 19.1468 29.0546C20.6747 29.5636 21.7054 30.9938 21.7054 32.6046C21.7054 34.2155 20.6747 35.6457 19.1468 36.1547C17.6189 36.6638 15.9356 36.1385 14.9695 34.8497ZM22.9781 34.1016C23.7417 31.5703 22.4943 28.8668 20.0735 27.8044C17.6519 26.742 14.819 27.6546 13.4725 29.9307C12.569 28.4007 10.949 27.436 9.17294 27.3713C7.39685 27.3066 5.71075 28.1503 4.69825 29.6107H1.70856C1.92583 29.2683 2.22536 28.985 2.57974 28.7874C2.83497 28.6601 2.99528 28.3985 2.99388 28.1138V25.868H39.6689V28.1131C39.6689 28.8612 40.417 28.703 40.9542 29.61C33.821 29.61 34.3371 29.5847 34.1381 29.6691C33.0454 29.8491 32.0716 30.4608 31.436 31.3671C30.3637 29.8449 28.4034 29.2325 26.6554 29.8723C24.9075 30.5121 23.8064 32.246 23.9702 34.1009H22.9781V34.1016ZM2.99388 13.8924H4.49083V21.3771H2.99388V13.8924ZM14.9695 13.8924V21.3771H11.9756V13.8924H14.9695ZM17.9634 13.8924V21.3771H16.4665V13.8924H17.9634ZM39.6689 24.371H2.99388V22.8741H39.6689V24.371ZM10.4786 21.3771H5.98778V13.8924H10.4786V21.3771ZM28.0673 36.3467C26.6203 36.3467 25.4475 35.1739 25.4475 33.7268C25.4475 32.2798 26.6203 31.107 28.0673 31.107C29.5143 31.107 30.6872 32.2798 30.6872 33.7268C30.6872 35.1739 29.5143 36.3467 28.0673 36.3467ZM34.804 36.3467C33.3569 36.3467 32.1841 35.1739 32.1841 33.7268C32.1841 32.2798 33.3569 31.107 34.804 31.107C36.251 31.107 37.4238 32.2798 37.4238 33.7268C37.4238 35.1739 36.2503 36.3467 34.804 36.3467ZM41.5132 31.1077L43.5086 34.1016H38.9018C39.0037 33.0202 38.6704 31.943 37.9765 31.1077H41.5132ZM30.6949 7.15644H35.178C36.0049 7.15644 36.675 7.82652 36.675 8.65339H32.1841C31.7707 8.65339 31.436 8.98878 31.436 9.40152C31.436 9.81496 31.7714 10.1496 32.1841 10.1496H36.3241L34.7843 16.1375H31.0802L29.2092 8.88331C29.1417 8.45019 29.2675 8.00933 29.553 7.67675C29.8392 7.34488 30.2561 7.15433 30.6949 7.15644ZM20.9573 19.8802C21.3708 19.8802 21.7054 19.5448 21.7054 19.1321C21.7047 18.9303 21.7884 18.7369 21.9354 18.5984C22.218 18.3087 22.4388 18.3832 23.9512 18.3832C24.3647 18.3832 24.6993 18.7186 24.6993 19.1314C24.6993 19.5448 25.0347 19.8795 25.4475 19.8795H27.6925C28.106 19.8795 28.4407 19.5441 28.4407 19.1314C28.4407 19.1187 28.4667 17.8981 30.5557 17.6344H35.3074C37.3078 17.8875 37.4168 19.0175 37.4217 19.1314C37.4217 19.3817 37.5468 19.6151 37.755 19.7543C38.3976 20.1896 38.9552 20.7394 39.3982 21.3771H19.4604V19.8802H20.9573ZM2.24505 10.8985H18.7115C19.125 10.8985 19.4597 11.2339 19.4597 11.6466C19.4597 12.0593 19.1243 12.3947 18.7115 12.3947H2.24505C1.83161 12.3947 1.49692 12.0593 1.49692 11.6466C1.49692 11.2339 1.83231 10.8985 2.24505 10.8985Z" fill="#575757" stroke="white" stroke-width="0.25"/>
<path d="M28.0676 31.8558C27.034 31.8558 26.1965 32.6932 26.1965 33.7268C26.1965 34.7604 27.034 35.5978 28.0676 35.5978C29.1011 35.5978 29.9386 34.7604 29.9386 33.7268C29.9393 32.6939 29.1011 31.8558 28.0676 31.8558ZM28.0676 34.1016C27.8608 34.1016 27.6935 33.9342 27.6935 33.7275C27.6935 33.5208 27.8608 33.3534 28.0676 33.3534C28.2743 33.3534 28.4416 33.5208 28.4416 33.7275C28.4423 33.9335 28.2743 34.1016 28.0676 34.1016Z" fill="#575757"/>
<path d="M34.8039 31.8558C33.7703 31.8558 32.9329 32.6932 32.9329 33.7268C32.9329 34.7604 33.7703 35.5978 34.8039 35.5978C35.8375 35.5978 36.6749 34.7604 36.6749 33.7268C36.6749 32.6939 35.8375 31.8558 34.8039 31.8558ZM34.8039 34.1016C34.5972 34.1016 34.4298 33.9342 34.4298 33.7275C34.4298 33.5208 34.5972 33.3534 34.8039 33.3534C35.0106 33.3534 35.1779 33.5208 35.1779 33.7275C35.1779 33.9335 35.0106 34.1016 34.8039 34.1016Z" fill="#575757"/>
<path d="M4.4908 37.8436C4.07736 37.8436 3.74268 38.179 3.74268 38.5917C3.74268 39.0052 4.07807 39.3398 4.4908 39.3398H40.4177C40.8311 39.3398 41.1658 39.0045 41.1658 38.5917C41.1658 38.1783 40.8304 37.8436 40.4177 37.8436H4.4908Z" fill="#575757"/>
<path d="M0.748125 39.3406H1.49625C1.90969 39.3406 2.24437 39.0052 2.24437 38.5924C2.24437 38.179 1.90898 37.8443 1.49625 37.8443H0.748125C0.335391 37.8436 0 38.179 0 38.5924C0 39.0052 0.335391 39.3406 0.748125 39.3406Z" fill="#575757"/>
<path d="M44.1598 37.8436H43.411C42.9975 37.8436 42.6628 38.179 42.6628 38.5917C42.6628 39.0052 42.9982 39.3398 43.411 39.3398H44.1591C44.5725 39.3398 44.9072 39.0045 44.9072 38.5917C44.9079 38.179 44.5732 37.8436 44.1598 37.8436Z" fill="#575757"/>
</g>
<defs>
<clipPath id="clip0">
<rect width="45" height="45" fill="white"/>
</clipPath>
</defs>
</svg>
