<svg width="40" height="40" viewBox="0 0 40 40" fill="none" xmlns="http://www.w3.org/2000/svg">
<g clip-path="url(#clip0)">
<path d="M25.997 17.1744C25.997 11.4959 21.3675 6.87625 15.6771 6.87625C12.6265 6.87625 9.74938 8.2125 7.78336 10.5423C7.57469 10.7897 7.60594 11.1593 7.85328 11.368C8.10063 11.5767 8.47023 11.5454 8.67898 11.298C10.4218 9.23266 12.9726 8.04805 15.6771 8.04805C20.7213 8.04805 24.8251 12.142 24.8251 17.1743C24.8251 21.2682 22.109 24.741 18.3802 25.8938V22.4192C20.5845 21.4305 22.0386 19.2207 22.0386 16.7963C22.0386 16.4727 21.7762 16.2104 21.4527 16.2104C21.1291 16.2104 20.8667 16.4727 20.8667 16.7963C20.8667 18.8703 19.5502 20.7512 17.5908 21.4766C17.3609 21.5616 17.2083 21.7809 17.2083 22.026V26.172C16.7102 26.2561 16.1988 26.3005 15.6771 26.3005C15.1555 26.3005 14.6441 26.2561 14.1459 26.172V22.026C14.1459 21.7809 13.9933 21.5616 13.7634 21.4766C11.804 20.7512 10.4875 18.8703 10.4875 16.7963C10.4875 15.1509 11.3078 13.6088 12.6812 12.6715C12.8405 12.563 12.9559 12.5027 13.0341 12.4691C13.0421 12.5704 13.042 16.4257 13.042 16.4257C13.042 17.8954 14.1673 19.131 15.6373 19.2312C15.6638 19.233 15.6905 19.233 15.717 19.2312C17.1871 19.131 18.3009 17.8107 18.3009 16.3411C18.3009 16.3411 18.3123 12.5704 18.3202 12.4691C18.3984 12.5027 18.5137 12.563 18.6727 12.6713C19.3755 13.1505 19.9486 13.8021 20.3301 14.5555C20.4763 14.8441 20.8287 14.9597 21.1175 14.8136C21.4062 14.6674 21.5218 14.3148 21.3756 14.0262C20.9051 13.0968 20.1988 12.2934 19.3326 11.7028C19.0834 11.5333 18.3255 11.017 17.6897 11.3845C17.0676 11.7438 17.173 12.2176 17.1609 12.9927C17.1602 13.0302 17.1437 16.4112 17.1437 16.4112C17.1437 17.2537 16.5157 17.9814 15.6772 18.059C14.8387 17.9814 14.214 17.2684 14.214 16.4259C14.214 16.4259 14.1946 13.0302 14.1937 12.9928C14.1717 12.1145 14.287 11.7439 13.6648 11.3845C13.0291 11.0171 12.271 11.5333 12.0212 11.7034C10.3271 12.8595 9.31578 14.7635 9.31578 16.7965C9.31578 19.2208 10.7699 21.4306 12.9742 22.4194V25.894C9.24539 24.7412 6.5293 21.2684 6.5293 17.1745C6.5293 15.8455 6.81023 14.5624 7.3643 13.361C7.49984 13.0672 7.37148 12.7191 7.07766 12.5836C6.78391 12.4482 6.4357 12.5764 6.30016 12.8703C5.67461 14.2266 5.35742 15.6748 5.35742 17.1745C5.35742 22.0822 8.81578 26.1984 13.4281 27.2255C13.4355 27.2273 13.443 27.229 13.4505 27.2304C14.1679 27.3884 14.9129 27.4726 15.6772 27.4726C16.4416 27.4726 17.1865 27.3885 17.9039 27.2304C17.9115 27.229 17.919 27.2272 17.9265 27.2255C22.5387 26.1983 25.997 22.082 25.997 17.1744Z" fill="#575757"/>
<path d="M38.7835 27.7118H38.4987C38.3774 27.3376 38.2266 26.9748 38.0477 26.6266L38.2494 26.4253C38.4797 26.1956 38.6061 25.8896 38.6054 25.5637C38.6047 25.2388 38.4776 24.9346 38.2494 24.7089L36.7606 23.2235C36.2895 22.7534 35.5203 22.7525 35.0441 23.2235L34.8411 23.426C34.4915 23.247 34.1273 23.0963 33.7516 22.9751V22.6924C33.7516 22.0224 33.2069 21.4774 32.5373 21.4774H30.4334C29.7638 21.4774 29.2191 22.0224 29.2191 22.6924V22.9751C28.8434 23.0963 28.4791 23.247 28.1296 23.426L27.9266 23.2235C27.8853 23.1823 27.841 23.146 27.7955 23.112C28.1373 22.4192 28.4191 21.6972 28.6362 20.9541H29.5708C30.5542 20.9541 31.3543 20.1542 31.3543 19.171V15.1778C31.3543 14.1946 30.5542 13.3948 29.5708 13.3948H28.6364C28.3637 12.4616 27.9886 11.5596 27.5173 10.7037L28.1784 10.0441C28.5149 9.70837 28.7002 9.26087 28.7002 8.784C28.7002 8.30712 28.5149 7.85954 28.1784 7.52368L25.3476 4.69915C24.6522 4.00532 23.5207 4.00525 22.8253 4.69923L22.1629 5.36017C21.3045 4.88946 20.4001 4.51493 19.464 4.24251V3.31165C19.464 2.3297 18.6639 1.53079 17.6805 1.53079H13.6762C12.6915 1.53079 11.8905 2.3297 11.8905 3.31165V4.24243C10.9544 4.51478 10.0499 4.88931 9.19156 5.36009L8.52914 4.69907C7.83375 4.00525 6.70227 4.00525 6.00688 4.69907L3.17586 7.52361C2.8393 7.85946 2.65398 8.30696 2.65398 8.78392C2.65398 9.26079 2.83938 9.70829 3.17586 10.044L3.83695 10.7036C3.36562 11.5595 2.99062 12.4615 2.71781 13.3947H1.78344C0.800078 13.3947 0 14.1945 0 15.1777V19.1709C0 20.1542 0.800078 20.954 1.78352 20.954H2.71789C2.99063 21.8873 3.3657 22.7892 3.83695 23.6451L3.17586 24.3046C2.8393 24.6404 2.65398 25.0879 2.65398 25.5649C2.65398 26.0418 2.8393 26.4893 3.17586 26.8251L6.00672 29.6496C6.70211 30.3433 7.83359 30.3435 8.52898 29.6495L9.19141 28.9886C10.0498 29.4593 10.9544 29.8338 11.8903 30.1062V31.037C11.8903 32.0189 12.6913 32.8178 13.676 32.8178H17.6803C18.6637 32.8178 19.4638 32.0189 19.4638 31.037V30.1063C20.3998 29.834 21.3044 29.4595 22.1627 28.9887L22.8252 29.6496C22.8716 29.696 22.9214 29.7386 22.9727 29.7795V31.024C22.9727 31.6928 23.5175 32.2368 24.187 32.2368H24.4731C24.5932 32.6085 24.7438 32.9713 24.9239 33.3224L24.7234 33.5233C24.4939 33.7524 24.3674 34.0571 24.3674 34.3814C24.3674 34.7058 24.4938 35.0106 24.7231 35.2394L26.2119 36.727C26.6862 37.1961 27.4555 37.1953 27.9266 36.7252L28.1301 36.522C28.4816 36.7017 28.8456 36.8525 29.219 36.9734V37.2562C29.219 37.925 29.7638 38.4691 30.4333 38.4691H32.5373C33.2068 38.4691 33.7516 37.9249 33.7516 37.2562V36.9736C34.1273 36.8524 34.4915 36.7017 34.8411 36.5227L35.0459 36.727C35.5203 37.1961 36.2896 37.1953 36.7606 36.7252L38.2494 35.2396C38.4789 35.0106 38.6054 34.7058 38.6054 34.3814C38.6054 34.0571 38.479 33.7523 38.2494 33.5232L38.0477 33.322C38.2267 32.9738 38.3774 32.611 38.4987 32.2368H38.7835C39.4543 32.2368 40 31.6927 40 31.024V28.9247C40 28.256 39.4543 27.7118 38.7835 27.7118ZM22.6744 27.8436C22.485 27.6548 22.1916 27.6178 21.9616 27.7545C20.9513 28.3538 19.8652 28.8034 18.7338 29.0907C18.474 29.1567 18.292 29.3906 18.292 29.6587V31.0371C18.292 31.3729 18.0177 31.6461 17.6804 31.6461H13.6761C13.3376 31.6461 13.0623 31.3729 13.0623 31.0371V29.6587C13.0623 29.3906 12.8803 29.1567 12.6205 29.0907C11.489 28.8034 10.403 28.3538 9.39273 27.7545C9.16258 27.6179 8.8693 27.6547 8.67992 27.8436L7.70133 28.8201C7.46227 29.0586 7.07336 29.0586 6.83445 28.8201L4.00367 25.9956C3.88906 25.8813 3.82602 25.7283 3.82602 25.5649C3.82602 25.4016 3.88914 25.2486 4.00367 25.1343L4.98227 24.1579C5.17234 23.9682 5.20914 23.6738 5.0718 23.4432C4.47125 22.4355 4.02078 21.352 3.73281 20.2232C3.66664 19.9638 3.43289 19.7821 3.16508 19.7821H1.78352C1.44625 19.7821 1.17188 19.5079 1.17188 19.1709V15.1777C1.17188 14.8408 1.44625 14.5666 1.78352 14.5666H3.165C3.43281 14.5666 3.66656 14.385 3.73273 14.1255C4.0207 12.9968 4.47125 11.9134 5.07172 10.9056C5.20914 10.675 5.17227 10.3805 4.98219 10.1909L4.00352 9.21439C3.88898 9.10009 3.82586 8.9472 3.82586 8.78384C3.82586 8.62048 3.88898 8.46751 4.00352 8.35321L6.83438 5.52868C7.07344 5.29017 7.46227 5.29025 7.70125 5.5286L8.67984 6.50517C8.86914 6.69407 9.16258 6.73087 9.39266 6.59431C10.4029 5.99501 11.4889 5.5454 12.6205 5.25806C12.8803 5.19204 13.0622 4.95814 13.0622 4.69009V3.31165C13.0622 2.97587 13.3375 2.70267 13.676 2.70267H17.6803C18.0176 2.70267 18.292 2.97587 18.292 3.31165V4.69009C18.292 4.95814 18.4738 5.19204 18.7336 5.25806C19.8652 5.54548 20.9513 5.99509 21.9615 6.59431C22.1916 6.73087 22.4848 6.69415 22.6743 6.50517L23.6529 5.52868C23.892 5.29017 24.2807 5.29017 24.5198 5.52868L27.3505 8.35321C27.4652 8.46751 27.5282 8.62048 27.5282 8.78384C27.5282 8.9472 27.4651 9.10009 27.3505 9.21439L26.372 10.1909C26.1819 10.3806 26.1451 10.675 26.2824 10.9056C26.883 11.9134 27.3334 12.9968 27.6214 14.1255C27.6876 14.385 27.9213 14.5666 28.1891 14.5666H29.5706C29.9079 14.5666 30.1823 14.8408 30.1823 15.1777V19.1709C30.1823 19.5079 29.9079 19.7821 29.5706 19.7821H28.1891C27.9214 19.7821 27.6877 19.9635 27.6214 20.223C27.3745 21.1892 27.0088 22.1199 26.536 22.994C26.4184 23.051 26.3076 23.1268 26.2095 23.2237L24.7251 24.707C24.4951 24.9345 24.368 25.2388 24.3673 25.5636C24.3666 25.8895 24.493 26.1956 24.7223 26.4245L24.9237 26.6263C24.744 26.9767 24.593 27.3395 24.472 27.7118H24.187C23.742 27.7118 23.3533 27.9528 23.1418 28.3103L22.6744 27.8436ZM38.8281 31.024C38.8281 31.0451 38.8065 31.0649 38.7835 31.0649H38.0588C37.7913 31.0649 37.5577 31.2461 37.4912 31.5052C37.3445 32.0774 37.1179 32.6221 36.818 33.1243C36.6802 33.3549 36.717 33.6498 36.9072 33.8395L37.4216 34.3527C37.4245 34.3557 37.4334 34.3645 37.4334 34.3814C37.4334 34.3984 37.4245 34.4072 37.4216 34.4101L35.9329 35.8956C35.9191 35.9093 35.8873 35.9111 35.8717 35.8956L35.3573 35.3823C35.1677 35.1932 34.874 35.1567 34.644 35.2935C34.1405 35.5928 33.5943 35.819 33.0206 35.9656C32.7612 36.0319 32.5798 36.2656 32.5798 36.5333V37.2563C32.5798 37.2778 32.5595 37.2974 32.5373 37.2974H30.4334C30.4112 37.2974 30.3909 37.2778 30.3909 37.2563V36.5333C30.3909 36.2656 30.2095 36.0319 29.9501 35.9656C29.3824 35.8206 28.8358 35.5941 28.3252 35.2926C28.2325 35.2379 28.1297 35.2112 28.0274 35.2112C27.8761 35.2112 27.7263 35.2697 27.6134 35.3823L27.0989 35.8956C27.0852 35.9092 27.0534 35.911 27.038 35.8959L25.5512 34.4102C25.5483 34.4072 25.5394 34.3984 25.5394 34.3814C25.5394 34.3645 25.5483 34.3557 25.5521 34.3519L26.0644 33.8386C26.2534 33.6492 26.2901 33.3558 26.1536 33.1257C25.8507 32.6152 25.6247 32.0706 25.482 31.507C25.4163 31.247 25.1823 31.0649 24.914 31.0649H24.1871C24.1649 31.0649 24.1447 31.0454 24.1447 31.024V28.9247C24.1447 28.9032 24.1649 28.8837 24.1871 28.8837H24.9118C25.1793 28.8837 25.4129 28.7025 25.4794 28.4434C25.6247 27.8772 25.8515 27.332 26.1535 26.823C26.2901 26.5929 26.2534 26.2995 26.0644 26.1101L25.5512 25.5959C25.5433 25.5879 25.5393 25.578 25.5394 25.5663C25.5394 25.5502 25.547 25.5427 25.5515 25.5382L27.0359 24.0549C27.0534 24.0374 27.0852 24.0395 27.0989 24.0531L27.6134 24.5665C27.803 24.7556 28.0966 24.7921 28.3268 24.6553C28.8302 24.356 29.3764 24.1298 29.9501 23.9832C30.2095 23.9169 30.3909 23.6832 30.3909 23.4155V22.6924C30.3909 22.6702 30.4116 22.6492 30.4334 22.6492H32.5373C32.5591 22.6492 32.5798 22.6702 32.5798 22.6924V23.4155C32.5798 23.6832 32.7612 23.9169 33.0206 23.9832C33.5943 24.1298 34.1405 24.356 34.644 24.6553C34.8742 24.7924 35.1678 24.7556 35.3573 24.5664L35.8699 24.0549C35.8875 24.0374 35.9192 24.0395 35.933 24.0531L37.4235 25.5403C37.426 25.5427 37.4335 25.5502 37.4335 25.5663C37.4335 25.5781 37.4295 25.588 37.4217 25.596L36.9073 26.1093C36.717 26.2991 36.6803 26.5938 36.818 26.8245C37.118 27.3267 37.3445 27.8713 37.4913 28.4435C37.5578 28.7025 37.7914 28.8838 38.0589 28.8838H38.7836C38.8065 28.8838 38.8282 28.9037 38.8282 28.9248V31.024H38.8281Z" fill="#575757"/>
<path d="M31.4865 25.3831C28.9494 25.3831 26.8853 27.4422 26.8853 29.9732C26.8853 32.5054 28.9493 34.5655 31.4865 34.5655C34.0224 34.5655 36.0855 32.5054 36.0855 29.9732C36.0856 27.4423 34.0224 25.3831 31.4865 25.3831ZM31.4865 33.3936C29.5956 33.3936 28.0571 31.8592 28.0571 29.9732C28.0571 28.0885 29.5955 26.555 31.4865 26.555C33.3762 26.555 34.9136 28.0885 34.9136 29.9732C34.9137 31.8592 33.3763 33.3936 31.4865 33.3936Z" fill="#575757"/>
</g>
<defs>
<clipPath id="clip0">
<rect width="40" height="40" fill="white"/>
</clipPath>
</defs>
</svg>
