<svg width="40" height="40" viewBox="0 0 40 40" fill="none" xmlns="http://www.w3.org/2000/svg">
<g clip-path="url(#clip0)">
<path d="M37.6031 32.9158C37.6031 32.9158 7.18667 32.9034 7.18073 32.9036C6.58214 32.8957 6.25886 32.9411 5.46214 33.297L0.537373 35.4947C0.207295 35.6408 0.0023734 35.9536 0.0026859 36.3111C0.0029984 36.6647 0.213233 36.9858 0.535029 37.1275C2.15019 37.8505 5.4619 39.3284 5.4619 39.3284C6.20753 39.6614 6.53073 39.6986 7.0605 39.6986L18.9827 39.7097C19.3063 39.7097 19.5686 39.4473 19.5686 39.1237C19.5686 38.8001 19.3063 38.5378 18.9827 38.5378C18.9827 38.5378 7.83253 38.5381 7.78425 38.5385V36.8986H33.6737V38.5378H21.8921C21.5685 38.5378 21.3062 38.8001 21.3062 39.1237C21.3062 39.4473 21.5685 39.7097 21.8921 39.7097H37.6031C38.9248 39.7097 40.0001 38.6362 40.0001 37.3168V35.3086C40 33.9893 38.9247 32.9158 37.6031 32.9158ZM3.40268 35.4993V37.1254C2.79565 36.8543 2.18925 36.5838 1.58159 36.312L3.40268 35.4993ZM4.57456 37.6487V34.9764C4.57456 34.9764 6.438 34.1565 6.61237 34.1164V38.5092C6.438 38.4691 5.00229 37.8397 4.57456 37.6487ZM7.78432 35.7268V34.087C7.83261 34.0874 7.88229 34.0877 7.93503 34.0877H33.6738V35.7268H7.78432ZM38.8281 37.3168C38.8281 37.9901 38.2786 38.5378 37.6031 38.5378H34.8456V34.0876H37.6031C38.2785 34.0876 38.8281 34.6354 38.8281 35.3086V37.3168Z" fill="#575757"/>
<path d="M1.00695 30.9814L18.8973 30.9792C19.2209 30.9792 19.4832 30.7168 19.4831 30.3932C19.483 30.0696 19.2207 29.8073 18.8971 29.8073L1.17188 29.8094V5.89866H3.51445V25.4865C3.51445 26.0183 3.94742 26.4509 4.47969 26.4509H28.7763C29.1779 26.4509 29.527 26.2341 29.6658 25.8986C29.8041 25.564 29.7125 25.1903 29.4205 24.8989L10.3796 5.89866H31.9307V24.478C31.9307 25.0255 32.3765 25.4709 32.9245 25.4709H35.5072C36.7062 25.4709 37.6816 26.4435 37.6816 27.6391C37.6816 28.8346 36.7062 29.8073 35.5072 29.8073H21.5873C21.2636 29.8073 21.0013 30.0696 21.0013 30.3932C21.0013 30.7168 21.2636 30.9791 21.5873 30.9791H35.5071C37.3522 30.9791 38.8534 29.4808 38.8534 27.6391V5.67155C38.8534 3.82858 37.3522 2.32929 35.5071 2.32929H32.9244C32.3764 2.32929 31.9306 2.77366 31.9306 3.31991V4.72687H9.20516L5.0668 0.597256C4.77398 0.305068 4.39875 0.214678 4.06289 0.355303C3.72695 0.496084 3.51164 0.845615 3.51445 1.24171V4.72679H1.00687C0.451719 4.72679 0 5.17905 0 5.73499V29.9733C0 30.5291 0.451719 30.9814 1.00695 30.9814ZM33.1026 3.50108H35.5071C36.7061 3.50108 37.6815 4.47468 37.6815 5.67147V25.1021C37.0962 24.6016 36.3364 24.2989 35.5071 24.2989H33.1026V3.50108ZM4.68633 1.87319L28.142 25.2791H23.1181V24.4562C23.1181 24.1326 22.8559 23.8702 22.5322 23.8702C22.2085 23.8702 21.9462 24.1326 21.9462 24.4562V25.2791H19.4327V23.6818C19.4327 23.3582 19.1703 23.0959 18.8467 23.0959C18.5231 23.0959 18.2608 23.3582 18.2608 23.6818V25.2791H15.7449V24.4562C15.7449 24.1326 15.4826 23.8702 15.159 23.8702C14.8354 23.8702 14.573 24.1326 14.573 24.4562V25.2791H12.0595V23.6818C12.0595 23.3582 11.7971 23.0959 11.4735 23.0959C11.1499 23.0959 10.8876 23.3582 10.8876 23.6818V25.2791H8.37188V24.4562C8.37188 24.1326 8.10953 23.8702 7.78594 23.8702C7.46234 23.8702 7.2 24.1326 7.2 24.4562V25.2791H4.68633V1.87319Z" fill="#575757"/>
<path d="M9.72405 21.0148H16.2158C16.4605 21.0148 16.9158 21.0148 17.0902 20.5933C17.2617 20.1787 16.9623 19.8801 16.7437 19.6619L10.317 13.2496C10.0987 13.0301 9.79968 12.7295 9.38452 12.9008C8.96265 13.0749 8.96265 13.5299 8.96265 13.7744V20.2539C8.96272 20.7162 9.26155 21.0148 9.72405 21.0148ZM10.1346 14.7229L15.2661 19.843H10.1346V14.7229Z" fill="#575757"/>
</g>
<defs>
<clipPath id="clip0">
<rect width="40" height="40" fill="white"/>
</clipPath>
</defs>
</svg>
