<svg width="40" height="40" viewBox="0 0 40 40" fill="none" xmlns="http://www.w3.org/2000/svg">
<path d="M0.666664 28.0952H2V6.69048C2.00217 4.65333 3.49333 3.0024 5.33333 3H34.6667C36.5067 3.0024 37.9978 4.65333 38 6.69048V28.0952H39.3333C39.7015 28.0952 40 28.4257 40 28.8333V30.3095C39.9978 32.3467 38.5067 33.9976 36.6667 34H3.33333C1.49333 33.9976 0.00216675 32.3467 0 30.3095V28.8333C0 28.4257 0.2985 28.0952 0.666664 28.0952ZM36.6667 6.69048C36.6667 5.46754 35.7712 4.47619 34.6667 4.47619H5.33333C4.22875 4.47619 3.33333 5.46754 3.33333 6.69048V28.0952H36.6667V6.69048ZM1.33333 30.3095C1.33333 31.5325 2.22875 32.5238 3.33333 32.5238H36.6667C37.7713 32.5238 38.6667 31.5325 38.6667 30.3095V29.5714H1.33333V30.3095Z" fill="#575757"/>
<path d="M4.66667 5.21429H35.3333C35.7015 5.21429 36 5.54478 36 5.95239V26.6191C36 27.0267 35.7015 27.3572 35.3333 27.3572H4.66667C4.2985 27.3572 4 27.0267 4 26.6191V5.95239C4 5.54478 4.2985 5.21429 4.66667 5.21429ZM5.33333 25.881H34.6667V6.69048H5.33333V25.881Z" fill="#575757"/>
</svg>
