<svg width="29" height="42" viewBox="0 0 29 42" fill="none" xmlns="http://www.w3.org/2000/svg">
<path d="M25.8485 7.86281C24.737 5.83844 23.1255 4.13664 21.1882 2.94109C19.164 1.69203 16.8097 1.02367 14.3724 1.00203C14.3313 1.00078 14.2905 1 14.2507 1H14.2506C14.211 1 14.1703 1.00078 14.1292 1.00203C11.6918 1.02359 9.33752 1.69203 7.31338 2.94109C5.37604 4.13664 3.76455 5.83852 2.65299 7.86281C1.54143 9.88703 0.970256 12.1602 1.00119 14.4366C1.03408 16.8545 1.75518 19.2388 3.08643 21.332L9.20994 30.9596L10.7332 35.335V41H17.7682V35.335L19.2915 30.9596L25.4151 21.332C26.7464 19.2389 27.4674 16.8545 27.5003 14.4366C27.5312 12.1602 26.9601 9.88719 25.8485 7.86281ZM5.06408 20.0742C2.89908 16.6702 2.76572 12.527 4.70737 8.99094C5.84096 6.92648 7.52932 5.34891 9.54057 4.39242C8.52619 6.18469 7.8108 8.57734 7.49588 11.2776C7.10619 14.6186 7.38502 18.0866 8.28096 21.043L10.6478 28.8531L5.06408 20.0742ZM15.4246 38.6562H13.0771V36.3088H15.4246V38.6562ZM15.7635 33.965H12.738L11.9207 31.6175H16.5808L15.7635 33.965ZM15.2771 29.2738H13.2243L10.5239 20.3631C9.71924 17.7079 9.47065 14.5777 9.82385 11.5491C10.1527 8.72945 10.98 6.25133 12.0938 4.75008C12.5697 4.10852 13.3303 3.34383 14.2506 3.34375H14.2507C15.1711 3.34375 15.9317 4.10852 16.4076 4.75008C17.5214 6.25133 18.3488 8.72953 18.6776 11.5491C19.0308 14.5777 18.7822 17.7079 17.9775 20.3631L15.2771 29.2738ZM23.4374 20.0741L17.8537 28.853L20.2206 21.0429C21.1165 18.0866 21.3953 14.6185 21.0056 11.2775C20.6906 8.57727 19.9753 6.18461 18.9609 4.39234C20.9721 5.34891 22.6605 6.92648 23.7941 8.99094C25.7357 12.527 25.6024 16.6702 23.4374 20.0741Z" fill="#575757" stroke="white"/>
</svg>
