<svg width="35" height="35" viewBox="0 0 35 35" fill="none" xmlns="http://www.w3.org/2000/svg">
<g clip-path="url(#clip0)">
<path d="M2.76502 11.7308C2.27762 11.6936 1.79678 11.8612 1.43811 12.1933C1.07944 12.5254 0.875389 12.992 0.875019 13.4808V14.0641C0.878601 14.9737 1.57733 15.7295 2.48385 15.8042C2.75607 15.8252 3.0248 15.853 3.29002 15.8876L3.2556 16.8968C3.25025 17.0514 3.30655 17.2019 3.41212 17.315C3.51769 17.4281 3.66388 17.4946 3.81852 17.5H3.83894C4.15351 17.5002 4.41157 17.2509 4.42227 16.9365L4.45144 16.0831C5.78814 16.3522 7.08599 16.7872 8.31485 17.3781L7.91235 18.4636C7.85841 18.6087 7.8643 18.7692 7.92874 18.9099C7.99318 19.0506 8.11088 19.1599 8.25594 19.2138C8.40105 19.2677 8.56164 19.2617 8.70235 19.1972C8.84305 19.1326 8.95232 19.0148 9.0061 18.8696L9.3561 17.9252C10.5783 18.6247 11.7074 19.4755 12.7167 20.4575L12.0908 21.21C11.8846 21.4577 11.9183 21.8257 12.166 22.0319C12.4138 22.2381 12.7817 22.2044 12.9879 21.9566L13.5293 21.3056C15.9286 23.9724 17.4003 27.3441 17.7246 30.9166H16.625C16.3029 30.9166 16.0417 31.1778 16.0417 31.5C16.0417 31.8221 16.3029 32.0833 16.625 32.0833H17.7847C17.7847 32.1807 17.7917 32.277 17.7917 32.375V33.25C17.7917 34.2165 18.5752 35 19.5417 35H20.125C21.0915 35 21.875 34.2165 21.875 33.25V32.375C21.875 32.277 21.8692 32.1807 21.868 32.0833H28.2847C28.2847 32.1807 28.2917 32.277 28.2917 32.375V33.25C28.2917 34.2165 29.0752 35 30.0417 35H30.625C31.5915 35 32.375 34.2165 32.375 33.25V32.375C32.375 32.277 32.3686 32.1807 32.368 32.0833H33.5417C33.8639 32.0833 34.125 31.8221 34.125 31.5C34.125 31.1778 33.8639 30.9166 33.5417 30.9166H32.375V25.0833H33.5417C33.8639 25.0833 34.125 24.8221 34.125 24.5C34.125 24.1778 33.8639 23.9166 33.5417 23.9166H32.375V18.0833H33.5417C33.8639 18.0833 34.125 17.8221 34.125 17.5C34.125 17.1778 33.8639 16.9166 33.5417 16.9166H32.375V11.0833H33.5417C33.8639 11.0833 34.125 10.8221 34.125 10.5C34.125 10.1778 33.8639 9.91663 33.5417 9.91663H32.375V4.0833H33.5417C33.8639 4.0833 34.125 3.82213 34.125 3.49997C34.125 3.1778 33.8639 2.91663 33.5417 2.91663H32.375V1.74997C32.375 0.783469 31.5915 -3.2648e-05 30.625 -3.2648e-05H30.0417C29.0752 -3.2648e-05 28.2917 0.783469 28.2917 1.74997V2.91663H21.875V1.74997C21.875 0.783469 21.0915 -3.2648e-05 20.125 -3.2648e-05H19.5417C18.5752 -3.2648e-05 17.7917 0.783469 17.7917 1.74997V2.91663H16.625C16.3029 2.91663 16.0417 3.1778 16.0417 3.49997C16.0417 3.82213 16.3029 4.0833 16.625 4.0833H17.7917V5.95288C16.7217 5.27687 15.6113 4.66711 14.4667 4.12705L14.84 3.11905C14.9123 2.92357 14.8749 2.70435 14.7417 2.54398C14.6086 2.38361 14.4 2.30645 14.1946 2.34157C13.9891 2.37668 13.818 2.51873 13.7457 2.71422L13.3957 3.65397C10.6942 2.50763 7.8439 1.75012 4.92977 1.40405L4.95835 0.603717C4.96963 0.281551 4.7176 0.0112432 4.39544 -3.2648e-05C4.07327 -0.0113085 3.80296 0.240718 3.79169 0.562884L3.7666 1.2833C3.4201 1.2553 3.0736 1.22497 2.7236 1.20688C2.24084 1.1849 1.76979 1.35959 1.4181 1.69105C1.06941 2.02018 0.872772 2.47915 0.875019 2.95863V3.54197C0.871305 4.47131 1.59831 5.23966 2.52644 5.2873C2.89802 5.30597 3.2661 5.3363 3.63477 5.36955L3.42244 11.7973C3.20369 11.7734 2.98552 11.7477 2.76502 11.7308ZM20.7084 33.25C20.7084 33.5721 20.4472 33.8333 20.125 33.8333H19.5417C19.2195 33.8333 18.9584 33.5721 18.9584 33.25V32.375C18.9584 32.0872 18.9514 31.8014 18.9374 31.5175C18.9374 31.5111 18.9409 31.5058 18.9409 31.5C18.9409 31.4941 18.9344 31.4766 18.9339 31.4644C18.7065 27.2265 16.971 23.2097 14.0409 20.1396C14.0033 20.0412 13.9272 19.9624 13.8303 19.9214C12.5204 18.5862 11.0095 17.4643 9.3526 16.5964C9.32098 16.5716 9.28675 16.5502 9.25052 16.5328C9.24177 16.5328 9.23302 16.5328 9.22427 16.5287C7.15503 15.4646 4.89461 14.8231 2.57485 14.6416C2.27465 14.6157 2.04358 14.3654 2.04169 14.0641V13.4808C2.04201 13.1558 2.30524 12.8923 2.63027 12.8916H2.67635C12.8358 13.7154 20.672 22.1822 20.7084 32.375V33.25ZM17.7917 10.9316V14.3733L15.3347 17.3209C13.9716 16.0341 12.4411 14.9371 10.7847 14.0595L13.0393 7.98055C14.7213 8.79701 16.314 9.78601 17.7917 10.9316ZM21.8167 30.9166C21.4687 26.1334 19.4708 21.6194 16.1642 18.1457L17.7917 16.1939V17.5C17.7917 17.8221 18.0529 18.0833 18.375 18.0833C18.6972 18.0833 18.9584 17.8221 18.9584 17.5V11.8848C19.5666 12.4133 20.1499 12.9684 20.7084 13.5502V22.1666C20.7084 22.4888 20.9695 22.75 21.2917 22.75C21.6139 22.75 21.875 22.4888 21.875 22.1666V14.8452C24.1342 17.5134 25.855 20.5939 26.9424 23.9166H21.875C21.5529 23.9166 21.2917 24.1778 21.2917 24.5C21.2917 24.8221 21.5529 25.0833 21.875 25.0833H27.2954C27.8253 26.9872 28.1457 28.9432 28.2509 30.9166H21.8167ZM30.0417 1.16663H30.625C30.9472 1.16663 31.2084 1.4278 31.2084 1.74997V23.912C30.7549 22.2868 30.1696 20.7013 29.4584 19.1712V1.74997C29.4584 1.4278 29.7195 1.16663 30.0417 1.16663ZM28.2917 16.9231C27.0913 14.8164 25.6497 12.8566 23.996 11.0833H28.2917V16.9231ZM28.2917 4.0833V9.91663H22.8539C22.5342 9.60805 22.2075 9.30822 21.875 9.01305V4.0833H28.2917ZM18.9584 1.74997C18.9584 1.4278 19.2195 1.16663 19.5417 1.16663H20.125C20.4472 1.16663 20.7084 1.4278 20.7084 1.74997V8.02663C20.1419 7.57163 19.5569 7.13997 18.9584 6.72463V1.74997ZM2.04169 3.54255V2.95922C2.04112 2.8002 2.10661 2.64809 2.22252 2.53922C2.33347 2.43256 2.48162 2.37334 2.63552 2.37413H2.66644C6.39892 2.55397 10.0648 3.43043 13.475 4.9583C13.4911 4.97003 13.5081 4.98055 13.5258 4.9898C13.5374 4.99388 13.5497 4.99272 13.5614 4.99622C24.3158 9.85826 31.2217 20.5726 31.2084 32.375V33.25C31.2084 33.5721 30.9472 33.8333 30.625 33.8333H30.0417C29.7195 33.8333 29.4584 33.5721 29.4584 33.25V32.375C29.4763 17.294 17.6466 4.85756 2.5836 4.1218C2.27728 4.10437 2.0387 3.84935 2.04169 3.54255ZM4.79677 5.5008C7.271 5.82884 9.68769 6.49888 11.9776 7.49172L9.73469 13.5391C8.09536 12.7868 6.36352 12.2553 4.58444 11.9583L4.79677 5.5008Z" fill="#575757"/>
</g>
<defs>
<clipPath id="clip0">
<rect width="35" height="35" fill="white"/>
</clipPath>
</defs>
</svg>
