<svg width="40" height="40" viewBox="0 0 40 40" fill="none" xmlns="http://www.w3.org/2000/svg">
<path d="M5.27344 35.8203L34.7266 35.8203C37.6344 35.8203 40 33.4547 40 30.5469L40 9.45312C40 6.54531 37.6344 4.17969 34.7266 4.17969L5.27344 4.17968C2.36563 4.17968 2.5593e-06 6.54531 2.30509e-06 9.45312L4.61019e-07 30.5469C2.06809e-07 33.4547 2.36562 35.8203 5.27344 35.8203ZM1.17188 9.45312C1.17188 7.19156 3.01188 5.35156 5.27344 5.35156L34.7266 5.35156C36.9881 5.35156 38.8281 7.19156 38.8281 9.45312L38.8281 30.5469C38.8281 32.8084 36.9881 34.6484 34.7266 34.6484L5.27344 34.6484C3.01188 34.6484 1.17188 32.8084 1.17188 30.5469L1.17188 9.45312Z" fill="#575757"/>
<path d="M5.27344 33.4766L34.7266 33.4766C36.342 33.4766 37.6563 32.1623 37.6563 30.5469L37.6563 9.45312C37.6563 7.83766 36.342 6.52344 34.7266 6.52344L5.27344 6.52343C3.65797 6.52343 2.34375 7.83765 2.34375 9.45312L2.34375 30.5469C2.34375 32.1623 3.65797 33.4766 5.27344 33.4766ZM3.51563 9.45312C3.51563 8.4839 4.30422 7.69531 5.27344 7.69531L34.7266 7.69531C35.6958 7.69531 36.4844 8.48391 36.4844 9.45312L36.4844 30.5469C36.4844 31.5161 35.6958 32.3047 34.7266 32.3047L5.27344 32.3047C4.30422 32.3047 3.51563 31.5161 3.51563 30.5469L3.51563 9.45312Z" fill="#575757"/>
<path d="M32.3828 27.6172L7.61719 27.6172C7.29352 27.6172 7.03125 27.8795 7.03125 28.2031C7.03125 28.5268 7.29352 28.7891 7.61719 28.7891L32.3828 28.7891C32.7065 28.7891 32.9688 28.5268 32.9688 28.2031C32.9688 27.8795 32.7065 27.6172 32.3828 27.6172Z" fill="#575757"/>
<path d="M32.3828 25.2734L7.61719 25.2734C7.29352 25.2734 7.03125 25.5357 7.03125 25.8594C7.03125 26.183 7.29352 26.4453 7.61719 26.4453L32.3828 26.4453C32.7065 26.4453 32.9688 26.183 32.9688 25.8594C32.9688 25.5357 32.7065 25.2734 32.3828 25.2734Z" fill="#575757"/>
<path d="M32.3828 22.9297L7.61719 22.9297C7.29352 22.9297 7.03125 23.192 7.03125 23.5156C7.03125 23.8393 7.29352 24.1016 7.61719 24.1016L32.3828 24.1016C32.7065 24.1016 32.9688 23.8393 32.9688 23.5156C32.9688 23.192 32.7065 22.9297 32.3828 22.9297Z" fill="#575757"/>
<path d="M32.3828 20.5859L7.61719 20.5859C7.29352 20.5859 7.03125 20.8482 7.03125 21.1719C7.03125 21.4955 7.29352 21.7578 7.61719 21.7578L32.3828 21.7578C32.7065 21.7578 32.9688 21.4955 32.9688 21.1719C32.9688 20.8482 32.7065 20.5859 32.3828 20.5859Z" fill="#575757"/>
<path d="M5.27344 31.1328L34.7266 31.1328C35.0502 31.1328 35.3125 30.8705 35.3125 30.5469L35.3125 25.8594C35.3125 25.5357 35.0502 25.2734 34.7266 25.2734C34.4029 25.2734 34.1406 25.5357 34.1406 25.8594L34.1406 29.9609L5.85938 29.9609L5.85938 19.4141L34.1406 19.4141L34.1406 23.5156C34.1406 23.8393 34.4029 24.1016 34.7266 24.1016C35.0502 24.1016 35.3125 23.8393 35.3125 23.5156L35.3125 18.8281C35.3125 18.5045 35.0502 18.2422 34.7266 18.2422L5.27344 18.2422C4.94977 18.2422 4.6875 18.5045 4.6875 18.8281L4.6875 30.5469C4.6875 30.8705 4.94977 31.1328 5.27344 31.1328Z" fill="#575757"/>
<path d="M14.6484 17.0703L25.3516 17.0703C25.6752 17.0703 25.9375 16.808 25.9375 16.4844L25.9375 9.45312C25.9375 9.12945 25.6752 8.86719 25.3516 8.86719L14.6484 8.86719C14.3248 8.86719 14.0625 9.12945 14.0625 9.45312L14.0625 16.4844C14.0625 16.808 14.3248 17.0703 14.6484 17.0703ZM15.2344 15.8984L15.2344 12.3828L24.7656 12.3828L24.7656 15.8984L15.2344 15.8984ZM24.7656 10.0391L24.7656 11.2109L15.2344 11.2109L15.2344 10.0391L24.7656 10.0391Z" fill="#575757"/>
<path d="M31.2109 17.0703C33.4725 17.0703 35.3125 15.2303 35.3125 12.9688C35.3125 10.7072 33.4725 8.86719 31.2109 8.86719C28.9494 8.86719 27.1094 10.7072 27.1094 12.9687C27.1094 15.2303 28.9494 17.0703 31.2109 17.0703ZM31.2109 10.0391C32.8264 10.0391 34.1406 11.3533 34.1406 12.9687C34.1406 14.5842 32.8264 15.8984 31.2109 15.8984C29.5955 15.8984 28.2813 14.5842 28.2813 12.9687C28.2813 11.3533 29.5955 10.0391 31.2109 10.0391Z" fill="#575757"/>
<path d="M31.2109 14.7266C32.1802 14.7266 32.9688 13.938 32.9688 12.9688C32.9688 11.9995 32.1802 11.2109 31.2109 11.2109C30.2417 11.2109 29.4531 11.9995 29.4531 12.9687C29.4531 13.938 30.2417 14.7266 31.2109 14.7266ZM31.2109 12.3828C31.5341 12.3828 31.7969 12.6456 31.7969 12.9687C31.7969 13.2919 31.5341 13.5547 31.2109 13.5547C30.8878 13.5547 30.625 13.2919 30.625 12.9687C30.625 12.6456 30.8878 12.3828 31.2109 12.3828Z" fill="#575757"/>
<path d="M8.78906 17.0703C11.0506 17.0703 12.8906 15.2303 12.8906 12.9688C12.8906 10.7072 11.0506 8.86719 8.78906 8.86719C6.5275 8.86719 4.6875 10.7072 4.6875 12.9687C4.6875 15.2303 6.5275 17.0703 8.78906 17.0703ZM8.78906 10.0391C10.4045 10.0391 11.7188 11.3533 11.7188 12.9687C11.7188 14.5842 10.4045 15.8984 8.78906 15.8984C7.17359 15.8984 5.85938 14.5842 5.85938 12.9687C5.85938 11.3533 7.17359 10.0391 8.78906 10.0391Z" fill="#575757"/>
<path d="M8.78906 14.7266C9.75828 14.7266 10.5469 13.938 10.5469 12.9688C10.5469 11.9995 9.75828 11.2109 8.78906 11.2109C7.81984 11.2109 7.03125 11.9995 7.03125 12.9687C7.03125 13.938 7.81984 14.7266 8.78906 14.7266ZM8.78906 12.3828C9.11219 12.3828 9.375 12.6456 9.375 12.9687C9.375 13.2919 9.11219 13.5547 8.78906 13.5547C8.46594 13.5547 8.20313 13.2919 8.20313 12.9687C8.20313 12.6456 8.46594 12.3828 8.78906 12.3828Z" fill="#575757"/>
</svg>
