<svg width="40" height="40" viewBox="0 0 40 40" fill="none" xmlns="http://www.w3.org/2000/svg">
<g clip-path="url(#clip0)">
<path d="M1.99576 30.3125H3.52576C4.05076 32.0831 5.57514 33.3744 7.40826 33.6013C9.24139 33.8281 11.0345 32.9475 11.9751 31.3581C12.7783 32.7181 14.2183 33.5756 15.797 33.6331C17.3758 33.6906 18.8745 32.9406 19.7745 31.6425H21.6933C22.2758 32.7856 23.4151 33.5394 24.6951 33.6281C25.9751 33.7169 27.2076 33.1281 27.9426 32.0763C28.677 33.1281 29.9101 33.7175 31.1901 33.6288C32.4701 33.54 33.6095 32.7863 34.192 31.6425H38.6739C39.1626 31.6406 39.6108 31.3713 39.8414 30.9406C40.072 30.51 40.0489 29.9875 39.7801 29.58L37.9026 26.7575C37.7964 25.8888 37.3176 25.1094 36.5914 24.6219V19.6669C36.5914 18.3038 35.1689 17.0925 34.5545 16.6338C34.2689 15.5338 33.3733 14.6982 32.2558 14.4907L33.8958 8.09815C34.0145 7.33065 33.7926 6.55003 33.2876 5.96065C32.7826 5.37065 32.0458 5.03128 31.2695 5.03003H27.2845C26.4958 5.02941 25.7476 5.37878 25.242 5.98378C24.7364 6.58878 24.5245 7.3869 24.6639 8.16315L26.292 14.495C25.2883 14.695 24.4539 15.3894 24.0751 16.3407H23.172C22.8889 15.5438 22.1358 15.0113 21.2901 15.01H19.9595C19.1139 15.0113 18.3601 15.5438 18.0764 16.3407H17.2983V12.2263C18.2139 11.9038 18.7639 10.9675 18.5989 10.0107C18.4345 9.05378 17.6039 8.35503 16.6326 8.3569H1.99576C1.02451 8.35503 0.193887 9.05378 0.0295117 10.0107C-0.134863 10.9675 0.414512 11.9038 1.33014 12.2263V24.6225C0.528887 25.1475 0.0326367 26.0288 -0.000488281 26.9856V28.3163C0.000136719 29.4188 0.893887 30.3125 1.99576 30.3125ZM1.99576 28.9819C1.62826 28.9819 1.33076 28.6838 1.33076 28.3169V27.6519H3.52639C3.39576 28.0832 3.32826 28.5319 3.32701 28.9825H1.99576V28.9819ZM4.65701 28.9819C4.65701 27.55 5.57326 26.2788 6.93139 25.8263C8.28951 25.3738 9.78576 25.8407 10.6445 26.9863H7.98326C6.88076 26.9863 5.98764 27.88 5.98764 28.9819C5.98764 30.0838 6.88139 30.9775 7.98326 30.9775H10.6445C9.78514 32.1231 8.28951 32.59 6.93139 32.1375C5.57326 31.685 4.65701 30.4138 4.65701 28.9819ZM7.98389 29.6469C7.61639 29.6469 7.31889 29.3488 7.31889 28.9819C7.31889 28.615 7.61701 28.3169 7.98389 28.3169H15.9676C16.3351 28.3169 16.6326 28.615 16.6326 28.9819C16.6326 29.3488 16.3345 29.6469 15.9676 29.6469H7.98389ZM13.3064 30.9775H15.9676C17.0701 30.9775 17.9633 30.0838 17.9633 28.9819C17.9633 27.88 17.0695 26.9863 15.9676 26.9863H13.3064C14.1658 25.8407 15.6614 25.3738 17.0195 25.8263C18.3776 26.2788 19.2939 27.55 19.2939 28.9819C19.2939 30.4138 18.3776 31.685 17.0195 32.1375C15.6614 32.59 14.1651 32.1231 13.3064 30.9775ZM20.4251 30.3125C21.1039 28.0625 19.9951 25.6594 17.8433 24.715C15.6908 23.7707 13.1726 24.5819 11.9758 26.605C11.1726 25.245 9.73264 24.3875 8.15389 24.33C6.57514 24.2725 5.07639 25.0225 4.17639 26.3206H1.51889C1.71201 26.0163 1.97826 25.7644 2.29326 25.5888C2.52014 25.4757 2.66264 25.2432 2.66139 24.99V22.9938H35.2614V24.9894C35.2614 25.6544 35.9264 25.5138 36.4039 26.32C30.0633 26.32 30.522 26.2975 30.3451 26.3725C29.3739 26.5325 28.5083 27.0763 27.9433 27.8819C26.9901 26.5288 25.2476 25.9844 23.6939 26.5532C22.1401 27.1219 21.1614 28.6631 21.307 30.3119H20.4251V30.3125ZM2.66139 12.3488H3.99201V19.0019H2.66139V12.3488ZM13.3064 12.3488V19.0019H10.6451V12.3488H13.3064ZM15.9676 12.3488V19.0019H14.637V12.3488H15.9676ZM35.2614 21.6632H2.66139V20.3325H35.2614V21.6632ZM9.31451 19.0019H5.32264V12.3488H9.31451V19.0019ZM24.9489 32.3081C23.6626 32.3081 22.6201 31.2656 22.6201 29.9794C22.6201 28.6931 23.6626 27.6507 24.9489 27.6507C26.2351 27.6507 27.2776 28.6931 27.2776 29.9794C27.2776 31.2656 26.2351 32.3081 24.9489 32.3081ZM30.937 32.3081C29.6508 32.3081 28.6083 31.2656 28.6083 29.9794C28.6083 28.6931 29.6508 27.6507 30.937 27.6507C32.2233 27.6507 33.2658 28.6931 33.2658 29.9794C33.2658 31.2656 32.2226 32.3081 30.937 32.3081ZM36.9008 27.6513L38.6745 30.3125H34.5795C34.6701 29.3513 34.3739 28.3938 33.757 27.6513H36.9008ZM27.2845 6.36128H31.2695C32.0045 6.36128 32.6001 6.9569 32.6001 7.6919H28.6083C28.2408 7.6919 27.9433 7.99003 27.9433 8.3569C27.9433 8.7244 28.2414 9.0219 28.6083 9.0219H32.2883L30.9195 14.3444H27.627L25.9639 7.89628C25.9039 7.51128 26.0158 7.1194 26.2695 6.82378C26.5239 6.52878 26.8945 6.3594 27.2845 6.36128ZM18.6289 17.6713C18.9964 17.6713 19.2939 17.3732 19.2939 17.0063C19.2933 16.8269 19.3676 16.655 19.4983 16.5319C19.7495 16.2744 19.9458 16.3407 21.2901 16.3407C21.6576 16.3407 21.9551 16.6388 21.9551 17.0057C21.9551 17.3732 22.2533 17.6707 22.6201 17.6707H24.6158C24.9833 17.6707 25.2808 17.3725 25.2808 17.0057C25.2808 16.9944 25.3039 15.9094 27.1608 15.675H31.3845C33.1626 15.9 33.2595 16.9044 33.2639 17.0057C33.2639 17.2282 33.3751 17.4357 33.5601 17.5594C34.1314 17.9463 34.627 18.435 35.0208 19.0019H17.2983V17.6713H18.6289ZM1.99576 9.68753H16.6326C17.0001 9.68753 17.2976 9.98565 17.2976 10.3525C17.2976 10.7194 16.9995 11.0175 16.6326 11.0175H1.99576C1.62826 11.0175 1.33076 10.7194 1.33076 10.3525C1.33076 9.98565 1.62889 9.68753 1.99576 9.68753Z" fill="#575757"/>
<path d="M24.9488 28.3163C24.03 28.3163 23.2856 29.0606 23.2856 29.9794C23.2856 30.8981 24.03 31.6425 24.9488 31.6425C25.8675 31.6425 26.6119 30.8981 26.6119 29.9794C26.6125 29.0613 25.8675 28.3163 24.9488 28.3163ZM24.9488 30.3125C24.765 30.3125 24.6163 30.1638 24.6163 29.98C24.6163 29.7963 24.765 29.6475 24.9488 29.6475C25.1325 29.6475 25.2813 29.7963 25.2813 29.98C25.2819 30.1631 25.1325 30.3125 24.9488 30.3125Z" fill="#575757"/>
<path d="M30.9366 28.3163C30.0178 28.3163 29.2734 29.0606 29.2734 29.9794C29.2734 30.8981 30.0178 31.6425 30.9366 31.6425C31.8553 31.6425 32.5997 30.8981 32.5997 29.9794C32.5997 29.0613 31.8553 28.3163 30.9366 28.3163ZM30.9366 30.3125C30.7528 30.3125 30.6041 30.1638 30.6041 29.98C30.6041 29.7963 30.7528 29.6475 30.9366 29.6475C31.1203 29.6475 31.2691 29.7963 31.2691 29.98C31.2691 30.1631 31.1203 30.3125 30.9366 30.3125Z" fill="#575757"/>
<path d="M3.99166 33.6387C3.62416 33.6387 3.32666 33.9369 3.32666 34.3037C3.32666 34.6712 3.62479 34.9687 3.99166 34.9687H35.9267C36.2942 34.9687 36.5917 34.6706 36.5917 34.3037C36.5917 33.9362 36.2935 33.6387 35.9267 33.6387H3.99166Z" fill="#575757"/>
<path d="M0.665 34.9694H1.33C1.6975 34.9694 1.995 34.6713 1.995 34.3044C1.995 33.9369 1.69687 33.6394 1.33 33.6394H0.665C0.298125 33.6387 0 33.9369 0 34.3044C0 34.6713 0.298125 34.9694 0.665 34.9694Z" fill="#575757"/>
<path d="M39.253 33.6387H38.5874C38.2199 33.6387 37.9224 33.9369 37.9224 34.3037C37.9224 34.6712 38.2205 34.9687 38.5874 34.9687H39.2524C39.6199 34.9687 39.9174 34.6706 39.9174 34.3037C39.918 33.9369 39.6205 33.6387 39.253 33.6387Z" fill="#575757"/>
</g>
<defs>
<clipPath id="clip0">
<rect width="40" height="40" fill="white"/>
</clipPath>
</defs>
</svg>
