<svg width="40" height="40" viewBox="0 0 40 40" fill="none" xmlns="http://www.w3.org/2000/svg">
<path d="M26.2539 3.125C25.8227 3.125 25.4727 3.475 25.4727 3.90625C25.4727 4.3375 25.8227 4.6875 26.2539 4.6875C26.6852 4.6875 27.0352 4.3375 27.0352 3.90625C27.0352 3.475 26.6852 3.125 26.2539 3.125Z" fill="#575757"/>
<path d="M13.7539 3.125C13.3227 3.125 12.9727 3.475 12.9727 3.90625C12.9727 4.3375 13.3227 4.6875 13.7539 4.6875C14.1852 4.6875 14.5352 4.3375 14.5352 3.90625C14.5352 3.475 14.1852 3.125 13.7539 3.125Z" fill="#575757"/>
<path d="M36.2527 38.6785L31.083 33.2777C33.1716 33.2028 34.8478 31.4815 34.8478 29.375V6.19297C34.8478 4.9307 34.4066 3.69805 33.6054 2.72203C32.8036 1.74625 31.6803 1.07383 30.4429 0.829063C27.6701 0.278906 24.8312 0 22.0049 0H17.8776C15.1895 0 12.3896 0.2575 9.55632 0.82375C7.00905 1.33336 5.1603 3.58891 5.1603 6.18672V29.375C5.1603 31.4992 6.86499 33.2316 8.97804 33.279L3.74999 38.6752C3.53163 38.9005 3.46929 39.2345 3.59171 39.5234C3.71397 39.8123 3.99733 40 4.31108 40H9.89702C10.1475 40 10.3827 39.8799 10.5297 39.6771L12.8995 36.4062H27.1781L29.548 39.6772C29.6949 39.8799 29.9302 40 30.1806 40H35.6884C36.0013 40 36.284 39.8133 36.4069 39.5256C36.5298 39.2378 36.4691 38.9046 36.2527 38.6785ZM6.7228 29.375V6.18672C6.7228 4.33102 8.04335 2.71992 9.86265 2.35586C12.4129 1.84617 15.1076 1.5625 17.8775 1.5625H22.0048C24.7293 1.5625 27.4659 1.83133 30.1391 2.36164C31.023 2.53656 31.8253 3.01688 32.3978 3.71367C32.9701 4.41078 33.2852 5.29125 33.2852 6.19289V29.375C33.2852 30.6673 32.2338 31.7188 30.9415 31.7188H9.06647C7.77421 31.7188 6.7228 30.6673 6.7228 29.375ZM9.49835 38.4375H6.15577L11.1513 33.2812H13.2343L9.49835 38.4375ZM14.0316 34.8438L15.1637 33.2812H24.914L26.046 34.8438H14.0316ZM30.5793 38.4375L26.8435 33.2812H28.9236L33.8591 38.4375H30.5793Z" fill="#575757"/>
<path d="M30.9414 6.25H9.06641C8.635 6.25 8.28516 6.59984 8.28516 7.03125V20C8.28516 20.4314 8.635 20.7812 9.06641 20.7812H30.9414C31.3728 20.7812 31.7227 20.4314 31.7227 20V7.03125C31.7227 6.59984 31.3728 6.25 30.9414 6.25ZM19.2227 19.2188H9.84766V7.8125H19.2227V19.2188ZM30.1602 19.2188H20.7852V7.8125H30.1602V19.2188Z" fill="#575757"/>
<path d="M23.1289 3.125H16.8789C16.4475 3.125 16.0977 3.47484 16.0977 3.90625C16.0977 4.33766 16.4475 4.6875 16.8789 4.6875H23.1289C23.5603 4.6875 23.9102 4.33766 23.9102 3.90625C23.9102 3.47484 23.5603 3.125 23.1289 3.125Z" fill="#575757"/>
<path d="M28.5977 23.125C26.8745 23.125 25.4727 24.5269 25.4727 26.25C25.4727 27.9731 26.8745 29.375 28.5977 29.375C30.3208 29.375 31.7227 27.9731 31.7227 26.25C31.7227 24.5269 30.3208 23.125 28.5977 23.125ZM28.5977 27.8125C27.7361 27.8125 27.0352 27.1116 27.0352 26.25C27.0352 25.3884 27.7361 24.6875 28.5977 24.6875C29.4592 24.6875 30.1602 25.3884 30.1602 26.25C30.1602 27.1116 29.4592 27.8125 28.5977 27.8125Z" fill="#575757"/>
<path d="M11.4102 23.125C9.68703 23.125 8.28516 24.5269 8.28516 26.25C8.28516 27.9731 9.68711 29.375 11.4102 29.375C13.1333 29.375 14.5351 27.9731 14.5351 26.25C14.5351 24.5269 13.1333 23.125 11.4102 23.125ZM11.4102 27.8125C10.5486 27.8125 9.84765 27.1116 9.84765 26.25C9.84765 25.3884 10.5486 24.6875 11.4102 24.6875C12.2717 24.6875 12.9727 25.3884 12.9727 26.25C12.9727 27.1116 12.2717 27.8125 11.4102 27.8125Z" fill="#575757"/>
<path d="M23.1289 23.9062H16.8789C16.4475 23.9062 16.0977 24.2561 16.0977 24.6875C16.0977 25.1189 16.4475 25.4688 16.8789 25.4688H23.1289C23.5603 25.4688 23.9102 25.1189 23.9102 24.6875C23.9102 24.2561 23.5604 23.9062 23.1289 23.9062Z" fill="#575757"/>
<path d="M23.1289 27.0312H16.8789C16.4475 27.0312 16.0977 27.3811 16.0977 27.8125C16.0977 28.2439 16.4475 28.5938 16.8789 28.5938H23.1289C23.5603 28.5938 23.9102 28.2439 23.9102 27.8125C23.9102 27.3811 23.5604 27.0312 23.1289 27.0312Z" fill="#575757"/>
</svg>
