<svg width="40" height="40" viewBox="0 0 40 40" fill="none" xmlns="http://www.w3.org/2000/svg">
<path d="M34.7266 4.17969H5.27344C2.36562 4.17969 0 6.54531 0 9.45312V30.5469C0 33.4547 2.36562 35.8203 5.27344 35.8203H34.7266C37.6344 35.8203 40 33.4547 40 30.5469V9.45312C40 6.54531 37.6344 4.17969 34.7266 4.17969ZM38.8281 30.5469C38.8281 32.8084 36.9881 34.6484 34.7266 34.6484H5.27344C3.01187 34.6484 1.17188 32.8084 1.17188 30.5469V9.45312C1.17188 7.19156 3.01187 5.35156 5.27344 5.35156H34.7266C36.9881 5.35156 38.8281 7.19156 38.8281 9.45312V30.5469Z" fill="#575757"/>
<path d="M34.7266 6.52344H5.27344C3.65797 6.52344 2.34375 7.83766 2.34375 9.45312V30.5469C2.34375 32.1623 3.65797 33.4766 5.27344 33.4766H34.7266C36.342 33.4766 37.6562 32.1623 37.6562 30.5469V9.45312C37.6562 7.83766 36.342 6.52344 34.7266 6.52344ZM36.4844 30.5469C36.4844 31.5161 35.6958 32.3047 34.7266 32.3047H5.27344C4.30422 32.3047 3.51562 31.5161 3.51562 30.5469V9.45312C3.51562 8.48391 4.30422 7.69531 5.27344 7.69531H34.7266C35.6958 7.69531 36.4844 8.48391 36.4844 9.45312V30.5469Z" fill="#575757"/>
<path d="M7.61719 12.3828H32.3828C32.7065 12.3828 32.9688 12.1205 32.9688 11.7969C32.9688 11.4732 32.7065 11.2109 32.3828 11.2109H7.61719C7.29352 11.2109 7.03125 11.4732 7.03125 11.7969C7.03125 12.1205 7.29352 12.3828 7.61719 12.3828Z" fill="#575757"/>
<path d="M7.61719 14.7266H32.3828C32.7065 14.7266 32.9688 14.4643 32.9688 14.1406C32.9688 13.817 32.7065 13.5547 32.3828 13.5547H7.61719C7.29352 13.5547 7.03125 13.817 7.03125 14.1406C7.03125 14.4643 7.29352 14.7266 7.61719 14.7266Z" fill="#575757"/>
<path d="M7.61719 17.0703H32.3828C32.7065 17.0703 32.9688 16.808 32.9688 16.4844C32.9688 16.1607 32.7065 15.8984 32.3828 15.8984H7.61719C7.29352 15.8984 7.03125 16.1607 7.03125 16.4844C7.03125 16.808 7.29352 17.0703 7.61719 17.0703Z" fill="#575757"/>
<path d="M7.61719 19.4141H32.3828C32.7065 19.4141 32.9688 19.1518 32.9688 18.8281C32.9688 18.5045 32.7065 18.2422 32.3828 18.2422H7.61719C7.29352 18.2422 7.03125 18.5045 7.03125 18.8281C7.03125 19.1518 7.29352 19.4141 7.61719 19.4141Z" fill="#575757"/>
<path d="M34.7266 8.86719H5.27344C4.94977 8.86719 4.6875 9.12945 4.6875 9.45312V14.1406C4.6875 14.4643 4.94977 14.7266 5.27344 14.7266C5.59711 14.7266 5.85938 14.4643 5.85938 14.1406V10.0391H34.1406V20.5859H5.85938V16.4844C5.85938 16.1607 5.59711 15.8984 5.27344 15.8984C4.94977 15.8984 4.6875 16.1607 4.6875 16.4844V21.1719C4.6875 21.4955 4.94977 21.7578 5.27344 21.7578H34.7266C35.0502 21.7578 35.3125 21.4955 35.3125 21.1719V9.45312C35.3125 9.12945 35.0502 8.86719 34.7266 8.86719Z" fill="#575757"/>
<path d="M25.3516 22.9297H14.6484C14.3248 22.9297 14.0625 23.192 14.0625 23.5156V30.5469C14.0625 30.8705 14.3248 31.1328 14.6484 31.1328H25.3516C25.6752 31.1328 25.9375 30.8705 25.9375 30.5469V23.5156C25.9375 23.192 25.6752 22.9297 25.3516 22.9297ZM24.7656 24.1016V27.6172H15.2344V24.1016H24.7656ZM15.2344 29.9609V28.7891H24.7656V29.9609H15.2344Z" fill="#575757"/>
<path d="M8.78906 22.9297C6.5275 22.9297 4.6875 24.7697 4.6875 27.0312C4.6875 29.2928 6.5275 31.1328 8.78906 31.1328C11.0506 31.1328 12.8906 29.2928 12.8906 27.0312C12.8906 24.7697 11.0506 22.9297 8.78906 22.9297ZM8.78906 29.9609C7.17359 29.9609 5.85938 28.6467 5.85938 27.0312C5.85938 25.4158 7.17359 24.1016 8.78906 24.1016C10.4045 24.1016 11.7188 25.4158 11.7188 27.0312C11.7188 28.6467 10.4045 29.9609 8.78906 29.9609Z" fill="#575757"/>
<path d="M8.78906 25.2734C7.81984 25.2734 7.03125 26.062 7.03125 27.0312C7.03125 28.0005 7.81984 28.7891 8.78906 28.7891C9.75828 28.7891 10.5469 28.0005 10.5469 27.0312C10.5469 26.062 9.75828 25.2734 8.78906 25.2734ZM8.78906 27.6172C8.46594 27.6172 8.20312 27.3544 8.20312 27.0312C8.20312 26.7081 8.46594 26.4453 8.78906 26.4453C9.11219 26.4453 9.375 26.7081 9.375 27.0312C9.375 27.3544 9.11219 27.6172 8.78906 27.6172Z" fill="#575757"/>
<path d="M31.2109 22.9297C28.9494 22.9297 27.1094 24.7697 27.1094 27.0312C27.1094 29.2928 28.9494 31.1328 31.2109 31.1328C33.4725 31.1328 35.3125 29.2928 35.3125 27.0312C35.3125 24.7697 33.4725 22.9297 31.2109 22.9297ZM31.2109 29.9609C29.5955 29.9609 28.2812 28.6467 28.2812 27.0312C28.2812 25.4158 29.5955 24.1016 31.2109 24.1016C32.8264 24.1016 34.1406 25.4158 34.1406 27.0312C34.1406 28.6467 32.8264 29.9609 31.2109 29.9609Z" fill="#575757"/>
<path d="M31.2109 25.2734C30.2417 25.2734 29.4531 26.062 29.4531 27.0312C29.4531 28.0005 30.2417 28.7891 31.2109 28.7891C32.1802 28.7891 32.9688 28.0005 32.9688 27.0312C32.9688 26.062 32.1802 25.2734 31.2109 25.2734ZM31.2109 27.6172C30.8878 27.6172 30.625 27.3544 30.625 27.0312C30.625 26.7081 30.8878 26.4453 31.2109 26.4453C31.5341 26.4453 31.7969 26.7081 31.7969 27.0312C31.7969 27.3544 31.5341 27.6172 31.2109 27.6172Z" fill="#575757"/>
</svg>
