<svg width="40" height="40" viewBox="0 0 40 40" fill="none" xmlns="http://www.w3.org/2000/svg">
<g clip-path="url(#clip0)">
<path d="M37.9629 7.24084L37.963 7.24062C38.0243 7.11098 38.0567 6.96587 38.0567 6.82174V6.56427C38.0567 6.02163 37.6146 5.57953 37.0719 5.57953H7.8936L12.5937 21.6931H30.0868C30.7397 21.6931 31.3411 21.311 31.6197 20.7208L37.9629 7.24084ZM37.9629 7.24084L31.6198 20.7207L37.9629 7.24084ZM7.29033 3.51138L7.01982 2.58398C7.01981 2.58396 7.01981 2.58395 7.0198 2.58394C6.55502 0.988506 5.07065 -0.125 3.40908 -0.125H0.909116C0.337582 -0.125 -0.125 0.337582 -0.125 0.909116C-0.125 1.48065 0.337582 1.94323 0.909116 1.94323H3.40908C4.15696 1.94323 4.82539 2.4446 5.03442 3.16268L5.03444 3.16275L10.675 22.501L7.81606 26.0742L7.81602 26.0743C7.38461 26.614 7.14767 27.2906 7.14767 27.9811C7.14767 29.665 8.51664 31.034 10.2006 31.034H35.4544C36.026 31.034 36.4885 30.5714 36.4885 29.9999C36.4885 29.4284 36.026 28.9658 35.4544 28.9658H10.2006C9.65792 28.9658 9.21582 28.5237 9.21582 27.981C9.21582 27.758 9.29237 27.5389 9.43143 27.3661L9.43166 27.3658L12.3156 23.7612H30.0868C31.5371 23.7612 32.8728 22.9138 33.491 21.6015L33.491 21.6014L39.8351 8.12047L39.8352 8.12032C40.0249 7.71577 40.1248 7.26709 40.1248 6.82165V6.56418C40.1248 4.88035 38.7559 3.51138 37.0719 3.51138H7.29033Z" fill="#575757" stroke="#575757" stroke-width="0.25"/>
<path d="M10.9091 32.6025C8.83463 32.6025 7.14776 34.2893 7.14776 36.3639C7.14776 38.4385 8.83454 40.1253 10.9091 40.1253C12.9837 40.1253 14.6705 38.4385 14.6705 36.3639C14.6705 34.2893 12.9836 32.6025 10.9091 32.6025ZM10.9091 38.0571C9.9759 38.0571 9.21599 37.2972 9.21599 36.3639C9.21599 35.4307 9.9759 34.6708 10.9091 34.6708C11.8424 34.6708 12.6023 35.4307 12.6023 36.3639C12.6023 37.2972 11.8424 38.0571 10.9091 38.0571Z" fill="#575757" stroke="#575757" stroke-width="0.25"/>
<path d="M32.7272 32.6025C30.6527 32.6025 28.9659 34.2893 28.9659 36.3639C28.9659 38.4385 30.6526 40.1253 32.7272 40.1253C34.8018 40.1253 36.4886 38.4385 36.4886 36.3639C36.4886 34.2893 34.8018 32.6025 32.7272 32.6025ZM32.7272 38.0571C31.794 38.0571 31.0341 37.2972 31.0341 36.3639C31.0341 35.4307 31.794 34.6708 32.7272 34.6708C33.6605 34.6708 34.4204 35.4307 34.4204 36.3639C34.4204 37.2972 33.6605 38.0571 32.7272 38.0571Z" fill="#575757" stroke="#575757" stroke-width="0.25"/>
<path d="M21.0654 15.7118H22.7499L23.0152 10H20.8001L21.0654 15.7118ZM23.0769 17.4914C23.0769 17.2082 22.9679 16.9767 22.7499 16.7968C22.5278 16.6131 22.2522 16.5212 21.9231 16.5212C21.594 16.5212 21.3204 16.6131 21.1024 16.7968C20.8803 16.9767 20.7692 17.2082 20.7692 17.4914C20.7692 17.7746 20.8803 18.008 21.1024 18.1917C21.3204 18.3716 21.594 18.4615 21.9231 18.4615C22.2522 18.4615 22.5278 18.3716 22.7499 18.1917C22.9679 18.008 23.0769 17.7746 23.0769 17.4914Z" fill="#575757"/>
</g>
<defs>
<clipPath id="clip0">
<rect width="40" height="40" fill="white"/>
</clipPath>
</defs>
</svg>
