<svg width="40" height="40" viewBox="0 0 40 40" fill="none" xmlns="http://www.w3.org/2000/svg">
<g clip-path="url(#clip0)">
<path d="M0.78125 37.1875H39.2188C39.6502 37.1875 40 36.8377 40 36.4062C40 35.9748 39.6502 35.625 39.2188 35.625H32.5V30.1562H37.8961C38.1809 30.1562 38.4433 30.0012 38.5806 29.7516C38.718 29.502 38.7085 29.1974 38.556 28.9568L34.8599 23.125H36.6063C36.8911 23.125 37.1534 22.9699 37.2908 22.7203C37.4281 22.4707 37.4187 22.1662 37.2662 21.9255L33.57 16.0938H35.3171C35.602 16.0938 35.8643 15.9387 36.0016 15.6891C36.139 15.4395 36.1295 15.1349 35.977 14.8943L34.8869 13.1744C34.6559 12.81 34.1734 12.7017 33.8088 12.9327C33.4443 13.1637 33.3361 13.6464 33.5671 14.0109L33.897 14.5313H32.15C31.8652 14.5313 31.6028 14.6864 31.4655 14.936C31.3281 15.1856 31.3376 15.4902 31.4901 15.7308L35.1862 21.5625H33.4398C33.155 21.5625 32.8927 21.7176 32.7553 21.9672C32.618 22.2168 32.6274 22.5213 32.7799 22.762L36.4761 28.5938H30.4361L25.485 20.7812H27.2313C27.5162 20.7812 27.7785 20.6262 27.9159 20.3766C28.0532 20.127 28.0437 19.8223 27.8913 19.5818L24.195 13.75H25.9421C26.227 13.75 26.4892 13.595 26.6266 13.3454C26.7639 13.0958 26.7545 12.7913 26.6021 12.5507L26.3552 12.1612L29.375 7.39687L29.8039 8.07359C30.0348 8.43797 30.5176 8.54625 30.882 8.31523C31.2465 8.08422 31.3547 7.60156 31.1237 7.23711L30.0348 5.5193C29.8916 5.2932 29.6427 5.15625 29.375 5.15625C29.1073 5.15625 28.8584 5.2932 28.7152 5.51922L25.4303 10.7018L20.6598 3.17547C20.5166 2.94945 20.2677 2.8125 20 2.8125C19.7323 2.8125 19.4834 2.94945 19.3402 3.17547L14.5697 10.7018L11.2848 5.51922C11.1416 5.2932 10.8927 5.15625 10.625 5.15625C10.3573 5.15625 10.1084 5.2932 9.96516 5.51922L4.02297 14.8942C3.87047 15.1348 3.86102 15.4395 3.99836 15.689C4.1357 15.9386 4.39797 16.0937 4.68289 16.0937H6.43L2.73391 21.9255C2.58141 22.1661 2.57195 22.4707 2.7093 22.7202C2.84664 22.9698 3.10891 23.125 3.39375 23.125H5.14008L1.44398 28.9568C1.29148 29.1974 1.28203 29.502 1.41937 29.7516C1.55672 30.0011 1.81898 30.1562 2.10391 30.1562H7.5V35.625H0.78125C0.349844 35.625 0 35.9748 0 36.4062C0 36.8377 0.349844 37.1875 0.78125 37.1875ZM16.8771 30.1562L16.8752 35.625H13.75V30.1562H16.8771ZM18.4375 30.1562H21.5625V35.625H18.4356L18.4375 30.1562ZM26.25 35.625H23.125V30.1562H26.25V35.625ZM30.9375 35.625H27.8125V30.1562H30.9375V35.625ZM20 5.05305L24.5223 12.1875H22.775C22.4902 12.1875 22.2278 12.3426 22.0905 12.5922C21.9531 12.8418 21.9626 13.1464 22.1151 13.387L25.8112 19.2188H24.0648C23.78 19.2188 23.5177 19.3738 23.3803 19.6234C23.243 19.873 23.2524 20.1776 23.4049 20.4182L28.5863 28.5938C22.8508 28.5938 17.1255 28.5938 11.4137 28.5938L16.3649 20.7812H20C20.4314 20.7812 20.7812 20.4315 20.7812 20C20.7812 19.5685 20.4314 19.2188 20 19.2188C19.083 19.2188 15.8126 19.2188 14.1888 19.2188L17.8849 13.387C18.0374 13.1463 18.0469 12.8418 17.9095 12.5922C17.7722 12.3426 17.5099 12.1875 17.225 12.1875H15.4777L20 5.05305ZM7.22 22.762C7.3725 22.5213 7.38195 22.2167 7.24461 21.9672C7.10727 21.7177 6.845 21.5625 6.56016 21.5625H4.81383L8.50992 15.7307C8.66242 15.4901 8.67188 15.1855 8.53453 14.9359C8.39719 14.6864 8.13492 14.5312 7.85 14.5312H6.10297L10.625 7.3968L13.6448 12.1612L13.3979 12.5507C13.2455 12.7913 13.2362 13.0959 13.3734 13.3454C13.5107 13.5949 13.773 13.75 14.0578 13.75H15.8049L12.1088 19.5818C11.9563 19.8224 11.9469 20.127 12.0842 20.3766C12.2216 20.6262 12.4838 20.7812 12.7688 20.7812H14.5151L9.56398 28.5938H3.52391L7.22 22.762ZM12.1875 30.1562V35.625H9.0625V30.1562H12.1875Z" fill="#575757"/>
<path d="M32.3438 11.4062C32.7752 11.4062 33.125 11.0565 33.125 10.625C33.125 10.1935 32.7752 9.84375 32.3438 9.84375C31.9123 9.84375 31.5625 10.1935 31.5625 10.625C31.5625 11.0565 31.9123 11.4062 32.3438 11.4062Z" fill="#575757"/>
</g>
<defs>
<clipPath id="clip0">
<rect width="40" height="40" fill="white"/>
</clipPath>
</defs>
</svg>
