<svg width="40" height="40" viewBox="0 0 40 40" fill="none" xmlns="http://www.w3.org/2000/svg">
<g clip-path="url(#clip0)">
<path d="M8.28125 19.2184C7.84984 19.2184 7.5 19.5683 7.5 19.9997V29.3747C7.5 29.8061 7.84984 30.1559 8.28125 30.1559H15.3125C15.7439 30.1559 16.0937 29.8061 16.0937 29.3747V19.9997C16.0937 19.5683 15.7439 19.2184 15.3125 19.2184H8.28125ZM14.5312 20.7809V23.9059H9.0625V20.7809H14.5312ZM9.0625 28.5934V25.4684H14.5312V28.5934H9.0625Z" fill="#575757"/>
<path d="M39.7342 17.0697C38.7407 16.1975 20.8481 0.486828 20.5154 0.194719C20.2253 -0.0602029 19.7894 -0.0638748 19.4943 0.186985C19.491 0.189719 19.4877 0.191985 19.4846 0.194719C18.3555 1.18605 0.890659 16.521 0.265816 17.0697C-0.0584032 17.3545 -0.0905126 17.8481 0.194175 18.1722C0.478941 18.4964 0.972534 18.5285 1.29667 18.2439L2.81246 16.9129V39.2192C2.81246 39.6507 3.1623 40.0005 3.59371 40.0005H36.4062C36.8376 40.0005 37.1875 39.6507 37.1875 39.2192V31.3286C37.1875 30.8972 36.8376 30.5474 36.4062 30.5474C35.9748 30.5474 35.625 30.8972 35.625 31.3286V38.438H32.5V34.5317C32.5 34.1003 32.1501 33.7505 31.7187 33.7505H30.1562V20.0005C30.1562 19.5691 29.8064 19.2192 29.375 19.2192H20C19.5686 19.2192 19.2187 19.5691 19.2187 20.0005V33.7505H17.6562C17.2248 33.7505 16.875 34.1003 16.875 34.5317V38.438H4.37496V15.541L6.94792 13.2818H33.052L35.625 15.541V24.2975C35.625 24.7289 35.9748 25.0787 36.4062 25.0787C36.8376 25.0787 37.1875 24.7289 37.1875 24.2975V16.913L38.7032 18.2439C39.0274 18.5285 39.5211 18.4966 39.8057 18.1723C40.0904 17.848 40.0584 17.3544 39.7342 17.0697ZM20.7812 20.7817H28.5937V26.2505H27.0312C26.5998 26.2505 26.25 26.6003 26.25 27.0317C26.25 27.4632 26.5998 27.813 27.0312 27.813H28.5937V33.7505H20.7812V20.7817ZM18.4375 35.313H30.9375V38.438H18.4375V35.313ZM19.2187 2.50738V11.7192H8.72746L19.2187 2.50738ZM20.7812 11.7192V2.50738L31.2725 11.7192H20.7812Z" fill="#575757"/>
<path d="M36.4062 28.5934C36.8377 28.5934 37.1875 28.2436 37.1875 27.8122C37.1875 27.3807 36.8377 27.0309 36.4062 27.0309C35.9748 27.0309 35.625 27.3807 35.625 27.8122C35.625 28.2436 35.9748 28.5934 36.4062 28.5934Z" fill="#575757"/>
</g>
<defs>
<clipPath id="clip0">
<rect width="40" height="40" fill="white"/>
</clipPath>
</defs>
</svg>
