<svg width="40" height="40" viewBox="0 0 40 40" fill="none" xmlns="http://www.w3.org/2000/svg">
<g clip-path="url(#clip0)">
<path d="M37.6028 32.9159C37.6028 32.9159 7.18642 32.9034 7.18049 32.9036C6.58189 32.8957 6.25861 32.9412 5.46189 33.297L0.537129 35.4948C0.207051 35.6409 0.00212926 35.9537 0.00244176 36.3111C0.00275426 36.6648 0.212989 36.9859 0.534785 37.1276C2.14994 37.8505 5.46166 39.3284 5.46166 39.3284C6.20728 39.6614 6.53049 39.6987 7.06025 39.6987L18.9824 39.7097C19.306 39.7097 19.5684 39.4473 19.5684 39.1237C19.5684 38.8002 19.306 38.5378 18.9824 38.5378C18.9824 38.5378 7.83228 38.5381 7.784 38.5385V36.8987H33.6734V38.5378H21.8919C21.5682 38.5378 21.3059 38.8002 21.3059 39.1237C21.3059 39.4473 21.5682 39.7097 21.8919 39.7097H37.6029C38.9245 39.7097 39.9998 38.6362 39.9998 37.3169V35.3087C39.9998 33.9893 38.9245 32.9159 37.6028 32.9159ZM3.40244 35.4994V37.1254C2.79541 36.8543 2.189 36.5838 1.58135 36.312L3.40244 35.4994ZM4.57432 37.6487V34.9764C4.57432 34.9764 6.43775 34.1565 6.61213 34.1164V38.5092C6.43775 38.4691 5.00205 37.8397 4.57432 37.6487ZM7.78408 35.7269V34.087C7.83236 34.0874 7.88205 34.0877 7.93478 34.0877H33.6735V35.7269H7.78408ZM38.8279 37.3169C38.8279 37.9902 38.2784 38.5378 37.6028 38.5378H34.8453V34.0877H37.6028C38.2783 34.0877 38.8279 34.6354 38.8279 35.3086V37.3169Z" fill="#575757"/>
<path d="M1.00695 30.9814L18.8973 30.9792C19.2209 30.9792 19.4832 30.7168 19.4831 30.3932C19.483 30.0696 19.2207 29.8073 18.8971 29.8073L1.17187 29.8094V5.89866H3.51445V25.4865C3.51445 26.0183 3.94742 26.4509 4.47969 26.4509H28.7763C29.1779 26.4509 29.5269 26.2341 29.6658 25.8986C29.8041 25.564 29.7125 25.1903 29.4205 24.8989L10.3796 5.89866H31.9307V24.478C31.9307 25.0255 32.3765 25.4709 32.9244 25.4709H35.5072C36.7062 25.4709 37.6816 26.4435 37.6816 27.6391C37.6816 28.8346 36.7062 29.8073 35.5072 29.8073H21.5873C21.2636 29.8073 21.0013 30.0696 21.0013 30.3932C21.0013 30.7168 21.2636 30.9791 21.5873 30.9791H35.5071C37.3522 30.9791 38.8534 29.4808 38.8534 27.6391V5.67155C38.8534 3.82858 37.3522 2.32929 35.5071 2.32929H32.9244C32.3764 2.32929 31.9306 2.77366 31.9306 3.31991V4.72687H9.20516L5.0668 0.597256C4.77398 0.305068 4.39875 0.214678 4.06289 0.355303C3.72695 0.496084 3.51164 0.845615 3.51445 1.24171V4.72679H1.00687C0.451719 4.72679 0 5.17905 0 5.73499V29.9733C0 30.5291 0.451719 30.9814 1.00695 30.9814ZM33.1026 3.50108H35.5071C36.7061 3.50108 37.6815 4.47468 37.6815 5.67147V25.1021C37.0962 24.6016 36.3364 24.2989 35.5071 24.2989H33.1026V3.50108ZM4.68633 1.87319L28.142 25.2791H23.1181V24.4562C23.1181 24.1326 22.8559 23.8702 22.5322 23.8702C22.2085 23.8702 21.9462 24.1326 21.9462 24.4562V25.2791H19.4327V23.6818C19.4327 23.3582 19.1703 23.0959 18.8467 23.0959C18.5231 23.0959 18.2608 23.3582 18.2608 23.6818V25.2791H15.7449V24.4562C15.7449 24.1326 15.4826 23.8702 15.159 23.8702C14.8354 23.8702 14.573 24.1326 14.573 24.4562V25.2791H12.0595V23.6818C12.0595 23.3582 11.7971 23.0959 11.4735 23.0959C11.1499 23.0959 10.8876 23.3582 10.8876 23.6818V25.2791H8.37187V24.4562C8.37187 24.1326 8.10953 23.8702 7.78594 23.8702C7.46234 23.8702 7.2 24.1326 7.2 24.4562V25.2791H4.68633V1.87319Z" fill="#575757"/>
<path d="M9.7243 21.0148H16.2161C16.4607 21.0148 16.9161 21.0148 17.0905 20.5934C17.262 20.1787 16.9626 19.8801 16.7439 19.6619L10.3173 13.2496C10.099 13.0301 9.79992 12.7295 9.38477 12.9008C8.96289 13.0749 8.96289 13.5299 8.96289 13.7744V20.2539C8.96297 20.7162 9.2618 21.0148 9.7243 21.0148ZM10.1348 14.7229L15.2663 19.843H10.1348V14.7229Z" fill="#575757"/>
</g>
<defs>
<clipPath id="clip0">
<rect width="40" height="40" fill="white"/>
</clipPath>
</defs>
</svg>
