<svg width="40" height="40" viewBox="0 0 40 40" fill="none" xmlns="http://www.w3.org/2000/svg">
<g clip-path="url(#clip0)">
<path d="M36.6925 12.6344C37.0205 12.6344 37.2865 12.3684 37.2865 12.0403V3.96109C37.2865 3.63305 37.0205 3.36703 36.6925 3.36703H32.7717V0.594063C32.7717 0.266016 32.5057 0 32.1776 0H29.2075C28.8794 0 28.6134 0.266016 28.6134 0.594063V3.36703H25.9014C25.5733 3.36703 25.3073 3.63305 25.3073 3.96109C25.3073 4.28914 25.5733 4.55516 25.9014 4.55516H28.6134V11.4462H11.3866V4.55516H23.129C23.4571 4.55516 23.7231 4.28914 23.7231 3.96109C23.7231 3.63305 23.4571 3.36703 23.129 3.36703H11.3866V0.594063C11.3866 0.266016 11.1206 0 10.7925 0H7.82238C7.49434 0 7.22832 0.266016 7.22832 0.594063V3.36703H3.30793C2.97988 3.36703 2.71387 3.63305 2.71387 3.96109V12.0403C2.71387 12.3684 2.97988 12.6344 3.30793 12.6344H7.22832V15.3663H3.30793C2.97988 15.3663 2.71387 15.6323 2.71387 15.9603V24.0395C2.71387 24.3676 2.97988 24.6336 3.30793 24.6336H7.22832V27.3662H3.30793C2.97988 27.3662 2.71387 27.6323 2.71387 27.9603V36.0387C2.71387 36.3668 2.97988 36.6328 3.30793 36.6328H7.22832V39.4059C7.22832 39.734 7.49434 40 7.82238 40H10.7925C11.1206 40 11.3866 39.734 11.3866 39.4059V36.6328H28.6134V39.4059C28.6134 39.734 28.8794 40 29.2075 40H32.1776C32.5057 40 32.7717 39.734 32.7717 39.4059V36.6328H36.6925C37.0205 36.6328 37.2865 36.3668 37.2865 36.0387V27.9603C37.2865 27.6323 37.0205 27.3662 36.6925 27.3662H32.7717V24.6336H36.6925C37.0205 24.6336 37.2865 24.3676 37.2865 24.0395V15.9603C37.2865 15.6323 37.0205 15.3663 36.6925 15.3663H32.7717V12.6344H36.6925ZM32.7717 4.55516H36.0984V11.4462H32.7717V4.55516ZM7.22832 35.4447H3.90199V28.5544H7.22832V35.4447ZM7.22832 23.4455H3.90199V16.5544H7.22832V23.4455ZM7.22832 11.4462H3.90199V4.55516H7.22832V11.4462ZM10.1985 38.8119H8.41645V1.18813H10.1985V38.8119ZM28.6133 27.3662H15.0499C14.7218 27.3662 14.4558 27.6323 14.4558 27.9603C14.4558 28.2884 14.7218 28.5544 15.0499 28.5544H28.6134V35.4447H11.3866V28.5544H12.2775C12.6055 28.5544 12.8715 28.2884 12.8715 27.9603C12.8715 27.6323 12.6055 27.3662 12.2775 27.3662H11.3866V24.6336H28.6134V27.3662H28.6133ZM28.6134 23.4455H11.3866V16.5544H28.6135V23.4455H28.6134ZM28.6134 15.3663H11.3866V12.6344H28.6135V15.3663H28.6134ZM31.5836 38.8119H29.8015V1.18813H31.5836V38.8119ZM32.7717 28.5544H36.0984V35.4447H32.7717V28.5544ZM32.7717 16.5544H36.0984V23.4455H32.7717V16.5544Z" fill="#575757" stroke="#575757" stroke-width="0.24"/>
</g>
<defs>
<clipPath id="clip0">
<rect width="40" height="40" fill="white"/>
</clipPath>
</defs>
</svg>
