<svg width="40" height="40" viewBox="0 0 40 40" fill="none" xmlns="http://www.w3.org/2000/svg">
<g clip-path="url(#clip0)">
<path d="M39.4141 32.3713C39.7377 32.3713 40 32.109 40 31.7854V29.3171C40 28.9935 39.7377 28.7312 39.4141 28.7312H37.0503V22.3612C37.0503 22.0376 36.788 21.7752 36.4644 21.7752C36.1408 21.7752 35.8784 22.0376 35.8784 22.3612V28.7312H17.5483V16.1984V16.1709V11.3036H24.2438V16.2836C24.2438 16.6072 24.5062 16.8695 24.8298 16.8695H28.597C28.9206 16.8695 29.183 16.6072 29.183 16.2836V11.3036H30.7177H35.4872C35.703 11.3036 35.8784 11.4792 35.8784 11.6949V20.0174C35.8784 20.3409 36.1408 20.6033 36.4644 20.6033C36.788 20.6033 37.0503 20.3409 37.0503 20.0174V11.6949C37.0503 10.833 36.3491 10.1317 35.4872 10.1317H31.3037V4.02946C31.3037 3.16751 30.6024 2.46634 29.7405 2.46634H4.1843C3.32234 2.46634 2.62117 3.16759 2.62117 4.02946V8.74751C2.62117 9.0711 2.88352 9.33345 3.20711 9.33345C3.5307 9.33345 3.79305 9.0711 3.79305 8.74751V4.02946C3.79305 3.81368 3.96859 3.63821 4.1843 3.63821H7.53586V6.97814C7.53586 7.30173 7.7982 7.56407 8.1218 7.56407H12.0477C12.3713 7.56407 12.6336 7.30173 12.6336 6.97814V3.63814H16.3765V10.7177V15.585H3.79297V11.0913C3.79297 10.7677 3.53062 10.5053 3.20703 10.5053C2.88344 10.5053 2.62109 10.7677 2.62109 11.0913V28.7311H0.585938C0.262344 28.7311 0 28.9934 0 29.317V31.7853C0 32.1089 0.262344 32.3713 0.585938 32.3713H1.98781V33.8935H0.585938C0.262344 33.8935 0 34.1559 0 34.4795V36.9477C0 37.2713 0.262344 37.5337 0.585938 37.5337H39.4141C39.7377 37.5337 40 37.2713 40 36.9477V34.4795C40 34.1559 39.7377 33.8935 39.4141 33.8935H37.8884V32.3713H39.4141V32.3713ZM11.4617 6.39212H8.70773V3.63814H11.4617V6.39212ZM8.70773 16.7843H11.4617V19.5383H8.70773V16.7843ZM28.0111 15.6977H25.4157V11.3036H28.0111V15.6977ZM30.1317 4.02946V10.1317H28.597H24.8297H17.5482V3.63814H21.2911V6.97806C21.2911 7.30165 21.5534 7.56399 21.877 7.56399H25.8029C26.1265 7.56399 26.3888 7.30165 26.3888 6.97806V3.63814H29.7404C29.9562 3.63814 30.1317 3.81368 30.1317 4.02946ZM22.463 3.63814H25.217V6.39212H22.463V3.63814ZM3.79297 16.7843H7.53586V20.1241C7.53586 20.4477 7.7982 20.7101 8.1218 20.7101H12.0477C12.3713 20.7101 12.6336 20.4477 12.6336 20.1241V16.7843H16.3765V28.7311H3.79297V16.7843ZM1.17188 29.903H38.8281V31.1994H1.17188V29.903ZM28.0307 33.8935V32.3713H31.561V33.8935H28.0307ZM11.8455 32.3713V33.8936H8.31523V32.3713H11.8455ZM13.0174 32.3713H17.0011V33.8936H13.0174V32.3713ZM18.173 32.3713H21.7033V33.8936H18.173V32.3713ZM22.8752 32.3713H26.8588V33.8936H22.8752V32.3713ZM3.15969 32.3713H7.14336V33.8936H3.15969V32.3713ZM38.8281 36.3619H1.17188V35.0655H38.8281V36.3619ZM36.7166 33.8935H32.7329V32.3713H36.7166V33.8935Z" fill="#575757"/>
<path d="M20.6631 21.9145H23.5556C23.8792 21.9145 24.1415 21.6522 24.1415 21.3286C24.1415 21.005 23.8792 20.7427 23.5556 20.7427H20.6631C20.3395 20.7427 20.0771 21.005 20.0771 21.3286C20.0771 21.6522 20.3395 21.9145 20.6631 21.9145Z" fill="#575757"/>
<path d="M20.6631 24.4589H25.2611C25.5847 24.4589 25.8471 24.1966 25.8471 23.873C25.8471 23.5494 25.5847 23.287 25.2611 23.287H20.6631C20.3395 23.287 20.0771 23.5494 20.0771 23.873C20.0771 24.1966 20.3395 24.4589 20.6631 24.4589Z" fill="#575757"/>
</g>
<defs>
<clipPath id="clip0">
<rect width="40" height="40" fill="white"/>
</clipPath>
</defs>
</svg>
