<svg width="40" height="40" viewBox="0 0 40 40" fill="none" xmlns="http://www.w3.org/2000/svg">
<g clip-path="url(#clip0)">
<path d="M7.21951 25.4196C6.283 25.4196 5.521 26.1816 5.521 27.1182C5.521 28.0547 6.28292 28.8167 7.21951 28.8167C8.1561 28.8167 8.91803 28.0547 8.91803 27.1182C8.91795 26.1816 8.15602 25.4196 7.21951 25.4196ZM7.21951 27.6407C6.93141 27.6407 6.69693 27.4063 6.69693 27.1181C6.69693 26.8299 6.93133 26.5955 7.21951 26.5955C7.50769 26.5955 7.7421 26.8299 7.7421 27.1181C7.74202 27.4063 7.50761 27.6407 7.21951 27.6407Z" fill="#575757"/>
<path d="M32.9832 25.4196C32.0467 25.4196 31.2847 26.1816 31.2847 27.1182C31.2847 28.0547 32.0466 28.8167 32.9832 28.8167C33.9198 28.8167 34.6817 28.0547 34.6817 27.1182C34.6817 26.1816 33.9197 25.4196 32.9832 25.4196ZM32.9832 27.6407C32.6951 27.6407 32.4606 27.4063 32.4606 27.1181C32.4606 26.8299 32.695 26.5955 32.9832 26.5955C33.2714 26.5955 33.5058 26.8299 33.5058 27.1181C33.5058 27.4063 33.2713 27.6407 32.9832 27.6407Z" fill="#575757"/>
<path d="M38.4952 22.1082V22.1042V16.779C38.4952 16.1117 38.3167 15.455 37.979 14.8795L37.2972 13.7176C37.1328 13.4375 36.7725 13.3436 36.4926 13.5082C36.2126 13.6725 36.1187 14.0328 36.2831 14.3128L36.9649 15.4747C37.1968 15.8699 37.3193 16.3208 37.3193 16.7791V16.8691H36.1387C35.4585 16.8691 34.9051 17.4225 34.9051 18.1028V21.4586C34.9051 22.1388 35.4585 22.6922 36.1387 22.6922H37.3244C37.3605 22.9822 37.6075 23.2068 37.9073 23.2068H37.9348C38.4252 23.2068 38.8241 23.6058 38.8241 24.0962V25.0489H36.4628C35.7554 23.8637 34.4605 23.0679 32.9827 23.0679C31.505 23.0679 30.2101 23.8637 29.5027 25.0489H23.5947L24.3292 23.4108C24.41 23.2305 24.451 23.0388 24.451 22.8412V18.0451H28.3809C28.7056 18.0451 28.9688 17.7818 28.9688 17.4571C28.9688 17.1324 28.7056 16.8691 28.3809 16.8691H25.6272V12.3594H32.0781L32.0734 16.8691H30.8865C30.5618 16.8691 30.2986 17.1324 30.2986 17.4571C30.2986 17.7818 30.5618 18.0451 30.8865 18.0451H32.0734C32.7245 18.0451 33.2543 17.5153 33.2543 16.8641V12.1538C33.2543 11.62 32.8201 11.1848 32.2808 11.1835H18.5989C18.3615 11.1835 18.132 11.2693 17.9529 11.4252L11.5299 17.0135C11.3449 17.1746 11.2792 17.4334 11.3651 17.6631C11.4511 17.8928 11.6706 18.0451 11.9158 18.0451H23.2749V22.8412C23.2749 22.8719 23.2685 22.9017 23.256 22.9296L22.3058 25.0489H15.6036C15.2789 25.0489 15.0156 25.3122 15.0156 25.6369C15.0156 25.9616 15.2789 26.2248 15.6036 26.2248H29.0328C28.9677 26.5125 28.9323 26.8112 28.9323 27.1182C28.9323 27.2168 28.9371 27.3141 28.9441 27.411H11.2581C11.265 27.3141 11.2698 27.2168 11.2698 27.1182C11.2698 26.8112 11.2343 26.5125 11.1693 26.2248H13.098C13.4227 26.2248 13.686 25.9616 13.686 25.6369C13.686 25.3122 13.4227 25.0489 13.098 25.0489H10.6995C10.2823 24.35 9.66082 23.7872 8.91795 23.4425V17.7273L17.3556 10.3861C17.6362 10.1419 17.9956 10.0075 18.3675 10.0075H32.2807C33.191 10.0075 34.0427 10.4952 34.5034 11.2802L35.0133 12.1492C35.1776 12.4292 35.5378 12.523 35.818 12.3587C36.098 12.1944 36.1919 11.8341 36.0275 11.554L35.5177 10.6851C34.8467 9.54174 33.6064 8.83148 32.2808 8.83148H18.3676C17.7119 8.83148 17.0784 9.06847 16.5838 9.49886L8.11008 16.8715H4.13042C1.85288 16.8716 0 18.7244 0 21.002V27.3196C0 28.0184 0.568445 28.5868 1.26718 28.5868H3.44595C4.0354 30.096 5.50414 31.1685 7.21951 31.1685C8.93488 31.1685 10.4036 30.0961 10.9931 28.5868H29.2092C29.7986 30.096 31.2674 31.1685 32.9827 31.1685C34.6982 31.1685 36.1669 30.0961 36.7564 28.5868H38.7291C39.4299 28.5868 40.0001 28.0166 40.0001 27.3159V24.0962C40 23.1516 39.3626 22.353 38.4952 22.1082ZM36.1386 18.045H37.3193V19.1926H36.081V18.1027C36.081 18.0709 36.1069 18.045 36.1386 18.045ZM36.081 21.4586V20.3686H37.3193V21.5163H36.1386C36.1069 21.5163 36.081 21.4904 36.081 21.4586ZM23.2747 12.3594H24.4513V16.869H23.2747V12.3594ZM18.6707 12.3594H22.0988V16.869H13.4875L18.6707 12.3594ZM7.74202 18.0475V23.1027C7.5708 23.0805 7.39661 23.0679 7.21943 23.0679C5.7405 23.0679 4.44471 23.8651 3.73766 25.0519C3.71822 25.0499 3.69854 25.0489 3.67863 25.0489H1.17593V22.0763H2.77504C3.75318 22.0763 4.54889 21.2805 4.54889 20.3024C4.54889 19.3242 3.75318 18.5285 2.77504 18.5285H2.51759C2.98169 18.2249 3.53555 18.0476 4.13042 18.0476H7.74202V18.0475ZM2.77504 19.7043C3.10477 19.7043 3.37296 19.9726 3.37296 20.3022C3.37296 20.6319 3.10469 20.9002 2.77504 20.9002H1.17852C1.1931 20.4725 1.29854 20.0675 1.47689 19.7043H2.77504ZM1.26718 27.4109C1.21685 27.4109 1.17593 27.37 1.17593 27.3196V26.2248H3.26964C3.20457 26.5124 3.16913 26.8111 3.16913 27.1182C3.16913 27.2167 3.17392 27.3141 3.18089 27.4109H1.26718ZM7.21951 29.9925C5.63459 29.9925 4.34507 28.7031 4.34507 27.1181C4.34507 25.5331 5.63451 24.2436 7.21951 24.2436C8.80451 24.2436 10.094 25.5331 10.094 27.1181C10.094 28.7031 8.80443 29.9925 7.21951 29.9925ZM32.9827 29.9925C31.3978 29.9925 30.1083 28.7031 30.1083 27.1181C30.1083 25.5331 31.3978 24.2436 32.9827 24.2436C34.5677 24.2436 35.8572 25.5331 35.8572 27.1181C35.8572 28.7031 34.5677 29.9925 32.9827 29.9925ZM38.729 27.4109H37.0213C37.0283 27.3141 37.033 27.2167 37.033 27.1182C37.033 26.8112 36.9975 26.5124 36.9325 26.2248H38.8241V27.3158C38.8241 27.3682 38.7814 27.4109 38.729 27.4109Z" fill="#575757"/>
<path d="M21.7584 20.141C22.0831 20.141 22.3464 19.8778 22.3464 19.5531C22.3464 19.2284 22.0831 18.9651 21.7584 18.9651H20.6285C20.3038 18.9651 20.0405 19.2284 20.0405 19.5531C20.0405 19.8778 20.3038 20.141 20.6285 20.141H21.7584Z" fill="#575757"/>
</g>
<defs>
<clipPath id="clip0">
<rect width="40" height="40" fill="white"/>
</clipPath>
</defs>
</svg>
