<svg width="40" height="40" viewBox="0 0 40 40" fill="none" xmlns="http://www.w3.org/2000/svg">
<path d="M27.9014 12.2462H23.8844C23.5128 12.2462 23.2114 12.5476 23.2114 12.9193C23.2114 13.2909 23.5128 13.5923 23.8844 13.5923H27.9014C28.2731 13.5923 28.5744 13.2909 28.5744 12.9193C28.5744 12.5476 28.2731 12.2462 27.9014 12.2462Z" fill="#575757"/>
<path d="M27.9014 14.9664H23.8844C23.5128 14.9664 23.2114 15.2677 23.2114 15.6394C23.2114 16.0111 23.5128 16.3124 23.8844 16.3124H27.9014C28.2731 16.3124 28.5744 16.0111 28.5744 15.6394C28.5744 15.2677 28.2731 14.9664 27.9014 14.9664Z" fill="#575757"/>
<path d="M27.9014 17.6303H23.8844C23.5128 17.6303 23.2114 17.9316 23.2114 18.3033C23.2114 18.675 23.5128 18.9763 23.8844 18.9763H27.9014C28.2731 18.9763 28.5744 18.675 28.5744 18.3033C28.5744 17.9316 28.2731 17.6303 27.9014 17.6303Z" fill="#575757"/>
<path d="M34.6159 10.9002H30.669C30.6362 10.9002 30.6041 10.9021 30.5691 10.9049C30.2189 10.9324 29.9487 11.2245 29.9487 11.5759V21.6659C29.9487 22.0182 30.2258 22.3112 30.5771 22.3374C30.6075 22.3396 30.6381 22.3413 30.669 22.3413H34.6159C35.3581 22.3413 35.962 21.7375 35.962 20.9953V12.2462C35.962 11.5041 35.3581 10.9002 34.6159 10.9002ZM34.6159 20.9899C34.6143 20.9924 34.6123 20.9952 34.6159 20.9953H31.2947V12.2461L34.6084 12.245C34.6113 12.2464 34.6159 12.2505 34.6159 12.2462V20.9899Z" fill="#575757"/>
<path d="M34.616 6.86221H13.106H11.7407C10.6534 6.86221 9.68539 7.3811 9.06984 8.18374H4.6339C3.1495 8.18374 1.94187 9.39137 1.94187 10.8758V10.9002H0.673006C0.301338 10.9002 0 11.2016 0 11.5733C0 11.9449 0.301338 12.2463 0.673006 12.2463H1.94187V12.2708C1.94187 13.7552 3.1495 14.9628 4.6339 14.9628H9.06993C9.68548 15.7655 10.6535 16.2843 11.7407 16.2843H13.106H14.431V17.7513C13.6422 18.0261 13.0745 18.7769 13.0745 19.6581V31.1186C13.0745 32.2318 13.9803 33.1376 15.0935 33.1376H15.1145C16.2278 33.1376 17.1335 32.2318 17.1335 31.1186V19.6582C17.1335 18.7769 16.5658 18.0262 15.777 17.7514V16.2844H18.4498C19.5679 16.2844 20.4775 17.194 20.4775 18.3121V27.0525C20.4775 28.9079 21.9871 30.4175 23.8426 30.4175H27.9297C29.7852 30.4175 31.2948 28.9079 31.2948 27.0525V26.3795H34.616C37.5848 26.3795 40 23.9642 40 20.9954V12.2463C40 9.27746 37.5848 6.86221 34.616 6.86221ZM15.7875 31.1187C15.7875 31.4898 15.4856 31.7917 15.1145 31.7917H15.0935C14.7224 31.7917 14.4205 31.4898 14.4205 31.1187V19.6582C14.4205 19.2871 14.7224 18.9851 15.0935 18.9851H15.1145C15.4856 18.9851 15.7875 19.2871 15.7875 19.6582V31.1187ZM4.6339 13.6168C3.89174 13.6168 3.28788 13.013 3.28788 12.2708V10.8758C3.28788 10.1336 3.89174 9.52976 4.6339 9.52976H8.44891C8.4013 9.75488 8.37572 9.98816 8.37572 10.2272V12.9193C8.37572 13.1584 8.40121 13.3916 8.44891 13.6168H4.6339ZM38.654 20.9953C38.654 23.222 36.8426 25.0334 34.616 25.0334L30.6663 25.0332C30.6538 25.0327 30.6414 25.0324 30.6288 25.0322C30.6265 25.0322 30.6242 25.0322 30.6218 25.0322C30.4447 25.0322 30.2745 25.1021 30.1485 25.2268C30.0207 25.3532 29.9488 25.5255 29.9488 25.7052V27.0524C29.9488 28.1656 29.043 29.0714 27.9298 29.0714H23.8426C22.7294 29.0714 21.8236 28.1656 21.8236 27.0524V18.3121C21.8236 16.4519 20.3102 14.9384 18.4499 14.9384H13.7791V11.5733C13.7791 11.2017 13.4778 10.9003 13.1061 10.9003C12.7344 10.9003 12.4331 11.2017 12.4331 11.5733V14.9384H11.7408C10.6276 14.9384 9.72182 14.0326 9.72182 12.9193V10.2273C9.72182 9.11409 10.6276 8.20831 11.7408 8.20831H12.4331V8.88131C12.4331 9.25298 12.7344 9.55432 13.1061 9.55432C13.4778 9.55432 13.7791 9.25298 13.7791 8.88131V8.20831H34.616C36.8427 8.20831 38.6541 10.0197 38.6541 12.2463V20.9953H38.654Z" fill="#575757"/>
</svg>
