<svg width="15" height="15" viewBox="0 0 15 15" fill="none" xmlns="http://www.w3.org/2000/svg">
<path d="M12.2503 3.54904L9.82281 5.97656H11.4844C11.808 5.97656 12.0703 6.23886 12.0703 6.5625C12.0703 6.88614 11.808 7.14844 11.4844 7.14844H9.28711C8.47939 7.14844 7.82227 6.49132 7.82227 5.68359V3.48633C7.82227 3.16269 8.08456 2.90039 8.4082 2.90039C8.73184 2.90039 8.99414 3.16269 8.99414 3.48633V5.1479L11.4215 2.72049C11.6504 2.49161 12.0214 2.49161 12.2502 2.72049C12.4791 2.94926 12.4791 3.32027 12.2503 3.54904ZM6.62109 12.0117C6.94473 12.0117 7.20703 11.7494 7.20703 11.4258V9.22852C7.20703 8.42079 6.54991 7.76367 5.74219 7.76367H3.54492C3.22128 7.76367 2.95898 8.02597 2.95898 8.34961C2.95898 8.67325 3.22128 8.93555 3.54492 8.93555H5.20649L2.77897 11.3631C2.5502 11.5918 2.5502 11.9629 2.77897 12.1916C2.89341 12.3061 3.04344 12.3633 3.19336 12.3633C3.34328 12.3633 3.49331 12.3061 3.60775 12.1916L6.03516 9.76421V11.4258C6.03516 11.7494 6.29745 12.0117 6.62109 12.0117ZM14.4141 10.3125C14.7377 10.3125 15 10.0502 15 9.72656V2.34375C15 1.05137 13.9486 0 12.6562 0H2.34375C1.05137 0 0 1.05137 0 2.34375V12.6562C0 13.9486 1.05137 15 2.34375 15H12.6562C13.9486 15 15 13.9486 15 12.6562C15 12.3326 14.7377 12.0703 14.4141 12.0703C14.0904 12.0703 13.8281 12.3326 13.8281 12.6562C13.8281 13.3024 13.3024 13.8281 12.6562 13.8281H2.34375C1.69762 13.8281 1.17188 13.3024 1.17188 12.6562V2.34375C1.17188 1.69762 1.69762 1.17188 2.34375 1.17188H12.6562C13.3024 1.17188 13.8281 1.69762 13.8281 2.34375V9.72656C13.8281 10.0502 14.0904 10.3125 14.4141 10.3125Z" fill="#575757"/>
</svg>
