<svg width="40" height="40" viewBox="0 0 40 40" fill="none" xmlns="http://www.w3.org/2000/svg">
<path fill-rule="evenodd" clip-rule="evenodd" d="M36.8429 16.1465H10.1889L35.7904 8.73016C35.9894 8.67249 36.1572 8.5379 36.2573 8.35663C36.3574 8.17505 36.3812 7.96143 36.3235 7.76245L34.9838 3.13751C34.4485 1.29028 32.7286 0 30.8011 0C30.3949 0 29.9902 0.0576782 29.5978 0.171204L5.56059 7.1344C4.44884 7.45636 3.52751 8.1955 2.96568 9.21509C2.40416 10.2347 2.27233 11.4087 2.59429 12.5201L3.90318 17.0386V35.6522C3.90318 38.0496 5.85356 40 8.25072 40H17.6385C18.0701 40 18.4198 39.6503 18.4198 39.2188C18.4198 38.7872 18.0701 38.4375 17.6385 38.4375H8.25102C6.71507 38.4375 5.46568 37.1881 5.46568 35.6522V25.0204H9.46806H9.4699H9.47142H15.5896H15.5914H15.5932H21.7114H21.7132H21.7151H27.8332H27.8351H27.8366H36.0617V35.6522C36.0617 37.1881 34.8123 38.4375 33.2764 38.4375H23.8885C23.4573 38.4375 23.1073 38.7872 23.1073 39.2188C23.1073 39.6503 23.4573 40 23.8885 40H33.2764C35.6738 40 37.6242 38.0496 37.6242 35.6522V16.9278C37.6242 16.4963 37.2745 16.1465 36.8429 16.1465ZM23.067 23.4579L26.3864 17.709H30.7037L27.3846 23.4579H23.067ZM16.9452 23.4579L20.2646 17.709H24.5819L21.2628 23.4579H16.9452ZM10.8237 23.4579L14.1427 17.709H18.4604L15.141 23.4579H10.8237ZM13.7283 13.3441L8.16985 8.00537L12.3346 6.79901C12.3639 6.84174 12.3981 6.88202 12.4371 6.91956L17.9956 12.2583L13.8309 13.4647C13.8016 13.4219 13.7671 13.3813 13.7283 13.3441ZM24.1971 3.51288L29.7555 8.85162L25.5908 10.058C25.5615 10.0153 25.5273 9.97467 25.4883 9.93744L19.9298 4.59869L24.0945 3.39233C24.1238 3.43506 24.158 3.47534 24.1971 3.51288ZM18.3169 5.21637L23.8754 10.5548L19.7107 11.7615C19.6814 11.7188 19.6472 11.6782 19.6081 11.6409L14.0497 6.30219L18.2144 5.09583C18.244 5.13824 18.2782 5.17883 18.3169 5.21637ZM30.0326 1.67206C30.2835 1.59943 30.542 1.5625 30.8011 1.5625C32.0373 1.5625 33.1399 2.38892 33.483 3.57239L34.6054 7.44659L31.4709 8.35449C31.4413 8.31177 31.4072 8.27148 31.3681 8.23395L25.8099 2.89551L30.0326 1.67206ZM4.3344 9.96887C4.69451 9.31488 5.28441 8.84125 5.99547 8.63525L6.45445 8.5022C6.48406 8.54492 6.51824 8.58551 6.55699 8.62274L12.1155 13.9615L5.21758 15.9598L4.09514 12.0856C3.88915 11.3748 3.97429 10.6232 4.3344 9.96887ZM5.46568 17.709H12.3385L9.01946 23.4579H5.46568V17.709ZM29.1888 23.4579L32.5079 17.709H36.0617V23.4579H29.1888Z" fill="#575757"/>
<path fill-rule="evenodd" clip-rule="evenodd" d="M26.1657 31.6495C26.1657 31.3702 26.0168 31.1124 25.7751 30.9729L18.9114 27.0102C18.6697 26.8707 18.3718 26.8707 18.1301 27.0102C17.8884 27.1496 17.7395 27.4075 17.7395 27.6868V35.6122C17.7395 35.8911 17.8884 36.149 18.1301 36.2884C18.251 36.3583 18.3859 36.3934 18.5208 36.3934C18.6556 36.3934 18.7905 36.3583 18.9114 36.2884L25.7751 32.326C26.0168 32.1866 26.1657 31.9287 26.1657 31.6495ZM19.302 34.259V29.0399L23.822 31.6495L19.302 34.259Z" fill="#575757"/>
<path fill-rule="evenodd" clip-rule="evenodd" d="M20.7634 38.4375C20.3331 38.4375 19.9822 38.7885 19.9822 39.2188C19.9822 39.649 20.3331 40 20.7634 40C21.194 40 21.5447 39.649 21.5447 39.2188C21.5447 38.7885 21.194 38.4375 20.7634 38.4375Z" fill="#575757"/>
</svg>
